<mxfile host="4b542a79-3c43-4a42-b4eb-3c48e1ca596d" modified="2020-10-05T01:54:35.441Z" agent="5.0 (X11; Linux x86_64) AppleWebKit/537.36 (KHTML, like Gecko) Code/1.49.2 Chrome/83.0.4103.122 Electron/9.2.1 Safari/537.36" etag="U0iwrvq562WAbsxAkase" version="13.1.3">
    <diagram id="6hGFLwfOUW9BJ-s0fimq" name="Page-1">
        <mxGraphModel dx="4814" dy="2990" grid="1" gridSize="10" guides="1" tooltips="1" connect="1" arrows="1" fold="1" page="1" pageScale="1" pageWidth="827" pageHeight="1169" math="0" shadow="0">
            <root>
                <mxCell id="0"/>
                <mxCell id="1" parent="0"/>
                <mxCell id="234" value="" style="group" parent="1" vertex="1" connectable="0">
                    <mxGeometry x="-3080" y="-1120" width="2140" height="1280" as="geometry"/>
                </mxCell>
                <mxCell id="342" value="" style="group" parent="234" vertex="1" connectable="0">
                    <mxGeometry x="330" y="390" width="2140" height="920" as="geometry"/>
                </mxCell>
                <mxCell id="232" value="" style="shape=folder;fontStyle=1;spacingTop=10;tabWidth=40;tabHeight=14;tabPosition=left;html=1;shadow=0;labelBackgroundColor=#FFFFFF;strokeWidth=1;fillColor=#A9C4EB;fontSize=35;strokeColor=#6c8ebf;" parent="342" vertex="1">
                    <mxGeometry width="2140" height="920" as="geometry"/>
                </mxCell>
                <mxCell id="233" value="InternalRepresentation" style="text;align=center;fontStyle=1;verticalAlign=middle;spacingLeft=3;spacingRight=3;strokeColor=none;rotatable=0;points=[[0,0.5],[1,0.5]];portConstraint=eastwest;fontSize=35;" parent="342" vertex="1">
                    <mxGeometry x="71.67464114832535" y="50" width="300.0095693779904" height="26" as="geometry"/>
                </mxCell>
                <mxCell id="221" value="" style="shape=folder;fontStyle=1;spacingTop=10;tabWidth=40;tabHeight=14;tabPosition=left;html=1;fontSize=12;fillColor=#ffe6cc;strokeColor=#d79b00;" parent="1" vertex="1">
                    <mxGeometry x="-2470" y="220" width="4010" height="550" as="geometry"/>
                </mxCell>
                <mxCell id="220" value="" style="shape=folder;fontStyle=1;spacingTop=10;tabWidth=40;tabHeight=14;tabPosition=left;html=1;fontSize=12;fillColor=#fff2cc;strokeColor=#d6b656;" parent="1" vertex="1">
                    <mxGeometry x="-540" y="-760" width="1400" height="960" as="geometry"/>
                </mxCell>
                <mxCell id="80" value="" style="endArrow=open;endFill=1;endSize=12;html=1;fontSize=25;exitX=1;exitY=0.5;exitDx=0;exitDy=0;entryX=0.572;entryY=-0.002;entryDx=0;entryDy=0;entryPerimeter=0;" parent="1" source="38" target="16" edge="1">
                    <mxGeometry width="160" relative="1" as="geometry">
                        <mxPoint x="130" y="-420" as="sourcePoint"/>
                        <mxPoint x="290" y="-420" as="targetPoint"/>
                        <Array as="points">
                            <mxPoint x="500" y="-561"/>
                            <mxPoint x="742" y="-561"/>
                        </Array>
                    </mxGeometry>
                </mxCell>
                <mxCell id="81" value="" style="endArrow=open;endFill=1;endSize=12;html=1;fontSize=25;exitX=1;exitY=0.5;exitDx=0;exitDy=0;entryX=0.5;entryY=0;entryDx=0;entryDy=0;" parent="1" source="39" target="12" edge="1">
                    <mxGeometry width="160" relative="1" as="geometry">
                        <mxPoint x="490" y="-330" as="sourcePoint"/>
                        <mxPoint x="650" y="-330" as="targetPoint"/>
                        <Array as="points">
                            <mxPoint x="500" y="-535"/>
                        </Array>
                    </mxGeometry>
                </mxCell>
                <mxCell id="91" value="" style="endArrow=open;endFill=1;endSize=12;html=1;fontSize=12;exitX=0;exitY=0.5;exitDx=0;exitDy=0;entryX=0.5;entryY=0;entryDx=0;entryDy=0;" parent="1" source="43" target="84" edge="1">
                    <mxGeometry width="160" relative="1" as="geometry">
                        <mxPoint x="180" y="-150" as="sourcePoint"/>
                        <mxPoint x="340" y="-150" as="targetPoint"/>
                        <Array as="points">
                            <mxPoint x="-384" y="-433"/>
                        </Array>
                    </mxGeometry>
                </mxCell>
                <mxCell id="102" value="" style="endArrow=open;endFill=1;endSize=12;html=1;fontSize=12;exitX=0;exitY=0.5;exitDx=0;exitDy=0;entryX=0.5;entryY=0;entryDx=0;entryDy=0;" parent="1" source="44" target="97" edge="1">
                    <mxGeometry width="160" relative="1" as="geometry">
                        <mxPoint x="-220" y="120" as="sourcePoint"/>
                        <mxPoint x="-60" y="120" as="targetPoint"/>
                        <Array as="points">
                            <mxPoint x="-190" y="-407"/>
                            <mxPoint x="-190" y="-200"/>
                            <mxPoint x="-525" y="-200"/>
                        </Array>
                    </mxGeometry>
                </mxCell>
                <mxCell id="118" value="Extends" style="endArrow=block;endSize=16;endFill=0;html=1;fontSize=12;exitX=0.5;exitY=0;exitDx=0;exitDy=0;entryX=0.541;entryY=1;entryDx=0;entryDy=0;entryPerimeter=0;noLabel=1;fontColor=none;" parent="1" source="103" target="101" edge="1">
                    <mxGeometry x="-0.5969" width="160" relative="1" as="geometry">
                        <mxPoint x="-680" y="480" as="sourcePoint"/>
                        <mxPoint x="-520" y="480" as="targetPoint"/>
                        <Array as="points">
                            <mxPoint x="-1075" y="470"/>
                            <mxPoint x="-506" y="470"/>
                        </Array>
                        <mxPoint as="offset"/>
                    </mxGeometry>
                </mxCell>
                <mxCell id="127" value="Extends" style="endArrow=block;endSize=16;endFill=0;html=1;fontSize=12;exitX=0.5;exitY=0;exitDx=0;exitDy=0;entryX=0.543;entryY=1;entryDx=0;entryDy=0;entryPerimeter=0;noLabel=1;fontColor=none;" parent="1" source="120" target="101" edge="1">
                    <mxGeometry x="0.1508" width="160" relative="1" as="geometry">
                        <mxPoint x="-830" y="480" as="sourcePoint"/>
                        <mxPoint x="-460" y="430" as="targetPoint"/>
                        <Array as="points">
                            <mxPoint x="-665" y="470"/>
                            <mxPoint x="-505" y="470"/>
                        </Array>
                        <mxPoint as="offset"/>
                    </mxGeometry>
                </mxCell>
                <mxCell id="150" value="Extends" style="endArrow=block;endSize=16;endFill=0;html=1;fontSize=12;entryX=0.542;entryY=0.998;entryDx=0;entryDy=0;entryPerimeter=0;exitX=0.5;exitY=0;exitDx=0;exitDy=0;noLabel=1;fontColor=none;" parent="1" source="132" target="101" edge="1">
                    <mxGeometry x="-0.1123" y="-10" width="160" relative="1" as="geometry">
                        <mxPoint x="-380" y="410" as="sourcePoint"/>
                        <mxPoint x="-220" y="410" as="targetPoint"/>
                        <Array as="points">
                            <mxPoint x="-305" y="470"/>
                            <mxPoint x="-505" y="470"/>
                        </Array>
                        <mxPoint as="offset"/>
                    </mxGeometry>
                </mxCell>
                <mxCell id="167" value="" style="endArrow=open;endFill=1;endSize=12;html=1;fontSize=12;entryX=0.5;entryY=0;entryDx=0;entryDy=0;exitX=0.016;exitY=-0.267;exitDx=0;exitDy=0;exitPerimeter=0;" parent="1" source="61" target="8" edge="1">
                    <mxGeometry width="160" relative="1" as="geometry">
                        <mxPoint x="700" y="-320" as="sourcePoint"/>
                        <mxPoint x="1000" y="-250" as="targetPoint"/>
                        <Array as="points">
                            <mxPoint x="586" y="-389"/>
                        </Array>
                    </mxGeometry>
                </mxCell>
                <mxCell id="199" value="Extends" style="endArrow=block;endSize=16;endFill=0;html=1;fontSize=12;exitX=0.5;exitY=0;exitDx=0;exitDy=0;entryX=0.542;entryY=1.038;entryDx=0;entryDy=0;entryPerimeter=0;noLabel=1;fontColor=none;" parent="1" source="144" target="101" edge="1">
                    <mxGeometry x="-0.5382" width="160" relative="1" as="geometry">
                        <mxPoint x="-830" y="580" as="sourcePoint"/>
                        <mxPoint x="-500" y="420" as="targetPoint"/>
                        <Array as="points">
                            <mxPoint x="-1490" y="470"/>
                            <mxPoint x="-505" y="470"/>
                        </Array>
                        <mxPoint as="offset"/>
                    </mxGeometry>
                </mxCell>
                <mxCell id="200" value="Extends" style="endArrow=block;endSize=16;endFill=0;html=1;fontSize=12;exitX=0.5;exitY=0;exitDx=0;exitDy=0;entryX=0.541;entryY=1.09;entryDx=0;entryDy=0;entryPerimeter=0;noLabel=1;fontColor=none;" parent="1" source="157" target="101" edge="1">
                    <mxGeometry x="-0.8761" y="30" width="160" relative="1" as="geometry">
                        <mxPoint x="-160" y="310" as="sourcePoint"/>
                        <mxPoint y="310" as="targetPoint"/>
                        <Array as="points">
                            <mxPoint x="50" y="470"/>
                            <mxPoint x="-506" y="470"/>
                        </Array>
                        <mxPoint x="-30" y="-30" as="offset"/>
                    </mxGeometry>
                </mxCell>
                <mxCell id="202" value="Extends" style="endArrow=block;endSize=16;endFill=0;html=1;fontSize=12;exitX=0.5;exitY=0;exitDx=0;exitDy=0;entryX=0.543;entryY=1.092;entryDx=0;entryDy=0;entryPerimeter=0;noLabel=1;fontColor=none;" parent="1" source="186" target="101" edge="1">
                    <mxGeometry x="-0.5883" width="160" relative="1" as="geometry">
                        <mxPoint x="-1840" y="360" as="sourcePoint"/>
                        <mxPoint x="-500" y="420" as="targetPoint"/>
                        <Array as="points">
                            <mxPoint x="-1865" y="470"/>
                            <mxPoint x="-505" y="470"/>
                        </Array>
                        <mxPoint as="offset"/>
                    </mxGeometry>
                </mxCell>
                <mxCell id="213" value="Extends" style="endArrow=block;endSize=16;endFill=0;html=1;fontSize=12;exitX=0.5;exitY=0;exitDx=0;exitDy=0;entryX=0.545;entryY=1.035;entryDx=0;entryDy=0;entryPerimeter=0;noLabel=1;fontColor=none;" parent="1" source="180" target="101" edge="1">
                    <mxGeometry width="160" relative="1" as="geometry">
                        <mxPoint x="-2100" y="670" as="sourcePoint"/>
                        <mxPoint x="-510" y="420" as="targetPoint"/>
                        <Array as="points">
                            <mxPoint x="-2255" y="470"/>
                            <mxPoint x="-504" y="470"/>
                        </Array>
                    </mxGeometry>
                </mxCell>
                <mxCell id="215" value="Extends" style="endArrow=block;endSize=16;endFill=0;html=1;fontSize=12;exitX=0.5;exitY=0;exitDx=0;exitDy=0;entryX=0.547;entryY=1.066;entryDx=0;entryDy=0;entryPerimeter=0;noLabel=1;fontColor=none;" parent="1" source="151" target="101" edge="1">
                    <mxGeometry x="-0.5647" width="160" relative="1" as="geometry">
                        <mxPoint x="70" y="330" as="sourcePoint"/>
                        <mxPoint x="-500" y="419" as="targetPoint"/>
                        <Array as="points">
                            <mxPoint x="395" y="470"/>
                            <mxPoint x="-503" y="470"/>
                        </Array>
                        <mxPoint x="-1" as="offset"/>
                    </mxGeometry>
                </mxCell>
                <mxCell id="216" value="Extends" style="endArrow=block;endSize=16;endFill=0;html=1;fontSize=12;exitX=0.5;exitY=0;exitDx=0;exitDy=0;entryX=0.545;entryY=1.015;entryDx=0;entryDy=0;entryPerimeter=0;noLabel=1;fontColor=none;" parent="1" source="174" target="101" edge="1">
                    <mxGeometry x="-0.6585" width="160" relative="1" as="geometry">
                        <mxPoint x="630" y="290" as="sourcePoint"/>
                        <mxPoint x="-500" y="420" as="targetPoint"/>
                        <Array as="points">
                            <mxPoint x="725" y="470"/>
                            <mxPoint x="-504" y="470"/>
                        </Array>
                        <mxPoint x="1" as="offset"/>
                    </mxGeometry>
                </mxCell>
                <mxCell id="218" value="" style="endArrow=open;endFill=1;endSize=12;html=1;fontSize=12;exitX=1;exitY=0.5;exitDx=0;exitDy=0;entryX=0.5;entryY=0;entryDx=0;entryDy=0;" parent="1" source="72" target="8" edge="1">
                    <mxGeometry width="160" relative="1" as="geometry">
                        <mxPoint x="446" y="-90" as="sourcePoint"/>
                        <mxPoint x="606" y="-90" as="targetPoint"/>
                        <Array as="points">
                            <mxPoint x="586" y="-343"/>
                        </Array>
                    </mxGeometry>
                </mxCell>
                <mxCell id="37" value="GraphStorage" style="swimlane;fontStyle=1;align=center;verticalAlign=top;childLayout=stackLayout;horizontal=1;startSize=26;horizontalStack=0;resizeParent=1;resizeParentMax=0;resizeLast=0;collapsible=1;marginBottom=0;fontSize=12;fillColor=#ffffff;" parent="1" vertex="1">
                    <mxGeometry x="-120" y="-600" width="520" height="526" as="geometry"/>
                </mxCell>
                <mxCell id="38" value="+ vertexStorageList: ArrayList&lt;VertexStorage&gt;" style="text;strokeColor=none;fillColor=#ffffff;align=left;verticalAlign=top;spacingLeft=4;spacingRight=4;overflow=hidden;rotatable=0;points=[[0,0.5],[1,0.5]];portConstraint=eastwest;" parent="37" vertex="1">
                    <mxGeometry y="26" width="520" height="26" as="geometry"/>
                </mxCell>
                <mxCell id="39" value="+ edgeStorageList: ArrayList&lt;EdgeStorage&gt;" style="text;strokeColor=none;fillColor=#ffffff;align=left;verticalAlign=top;spacingLeft=4;spacingRight=4;overflow=hidden;rotatable=0;points=[[0,0.5],[1,0.5]];portConstraint=eastwest;" parent="37" vertex="1">
                    <mxGeometry y="52" width="520" height="26" as="geometry"/>
                </mxCell>
                <mxCell id="40" value="+ editor: mxEditor" style="text;strokeColor=none;fillColor=#ffffff;align=left;verticalAlign=top;spacingLeft=4;spacingRight=4;overflow=hidden;rotatable=0;points=[[0,0.5],[1,0.5]];portConstraint=eastwest;" parent="37" vertex="1">
                    <mxGeometry y="78" width="520" height="26" as="geometry"/>
                </mxCell>
                <mxCell id="41" value="+ graphModel: mxGraphModel" style="text;strokeColor=none;fillColor=#ffffff;align=left;verticalAlign=top;spacingLeft=4;spacingRight=4;overflow=hidden;rotatable=0;points=[[0,0.5],[1,0.5]];portConstraint=eastwest;" parent="37" vertex="1">
                    <mxGeometry y="104" width="520" height="26" as="geometry"/>
                </mxCell>
                <mxCell id="42" value="- id: string" style="text;strokeColor=none;fillColor=#ffffff;align=left;verticalAlign=top;spacingLeft=4;spacingRight=4;overflow=hidden;rotatable=0;points=[[0,0.5],[1,0.5]];portConstraint=eastwest;" parent="37" vertex="1">
                    <mxGeometry y="130" width="520" height="24" as="geometry"/>
                </mxCell>
                <mxCell id="43" value="- graphConfiguration: GraphConfiguration" style="text;strokeColor=none;fillColor=#ffffff;align=left;verticalAlign=top;spacingLeft=4;spacingRight=4;overflow=hidden;rotatable=0;points=[[0,0.5],[1,0.5]];portConstraint=eastwest;" parent="37" vertex="1">
                    <mxGeometry y="154" width="520" height="26" as="geometry"/>
                </mxCell>
                <mxCell id="44" value="+ strategy: ICreateComponentStrategy" style="text;strokeColor=#b85450;fillColor=#f8cecc;align=left;verticalAlign=top;spacingLeft=4;spacingRight=4;overflow=hidden;rotatable=0;points=[[0,0.5],[1,0.5]];portConstraint=eastwest;" parent="37" vertex="1">
                    <mxGeometry y="180" width="520" height="26" as="geometry"/>
                </mxCell>
                <mxCell id="45" value="" style="line;strokeWidth=1;fillColor=#9999FF;align=left;verticalAlign=middle;spacingTop=-1;spacingLeft=3;spacingRight=3;rotatable=0;labelPosition=right;points=[];portConstraint=eastwest;" parent="37" vertex="1">
                    <mxGeometry y="206" width="520" height="8" as="geometry"/>
                </mxCell>
                <mxCell id="46" value="+ initizeEditor(element: HTMLElement,filePath: String)" style="text;strokeColor=none;fillColor=#ffffff;align=left;verticalAlign=top;spacingLeft=4;spacingRight=4;overflow=hidden;rotatable=0;points=[[0,0.5],[1,0.5]];portConstraint=eastwest;" parent="37" vertex="1">
                    <mxGeometry y="214" width="520" height="26" as="geometry"/>
                </mxCell>
                <mxCell id="48" value="+ syncStorage()" style="text;strokeColor=none;fillColor=#ffffff;align=left;verticalAlign=top;spacingLeft=4;spacingRight=4;overflow=hidden;rotatable=0;points=[[0,0.5],[1,0.5]];portConstraint=eastwest;" parent="37" vertex="1">
                    <mxGeometry y="240" width="520" height="26" as="geometry"/>
                </mxCell>
                <mxCell id="50" value="+ setStrategy(strategy: ICreateComponentStrategy)" style="text;strokeColor=#b85450;fillColor=#f8cecc;align=left;verticalAlign=top;spacingLeft=4;spacingRight=4;overflow=hidden;rotatable=0;points=[[0,0.5],[1,0.5]];portConstraint=eastwest;" parent="37" vertex="1">
                    <mxGeometry y="266" width="520" height="26" as="geometry"/>
                </mxCell>
                <mxCell id="51" value="+ createComponent(component: UIComponent, parent, basex?, basey?)" style="text;strokeColor=#6c8ebf;fillColor=#dae8fc;align=left;verticalAlign=top;spacingLeft=4;spacingRight=4;overflow=hidden;rotatable=0;points=[[0,0.5],[1,0.5]];portConstraint=eastwest;" parent="37" vertex="1">
                    <mxGeometry y="292" width="520" height="26" as="geometry"/>
                </mxCell>
                <mxCell id="52" value="+ initizeEditor(element: HTMLElement,filePath: String)" style="text;strokeColor=none;fillColor=#ffffff;align=left;verticalAlign=top;spacingLeft=4;spacingRight=4;overflow=hidden;rotatable=0;points=[[0,0.5],[1,0.5]];portConstraint=eastwest;" parent="37" vertex="1">
                    <mxGeometry y="318" width="520" height="26" as="geometry"/>
                </mxCell>
                <mxCell id="53" value="+ insertVertex(parent: mxCell, vertexID, vertexValue, geometry, style, UIComponent, isPrimary)" style="text;strokeColor=none;fillColor=#ffffff;align=left;verticalAlign=top;spacingLeft=4;spacingRight=4;overflow=hidden;rotatable=0;points=[[0,0.5],[1,0.5]];portConstraint=eastwest;" parent="37" vertex="1">
                    <mxGeometry y="344" width="520" height="26" as="geometry"/>
                </mxCell>
                <mxCell id="54" value="+ insertEdge(sourceVertex:mxCell, targetVertex:mxCell)" style="text;strokeColor=none;fillColor=#ffffff;align=left;verticalAlign=top;spacingLeft=4;spacingRight=4;overflow=hidden;rotatable=0;points=[[0,0.5],[1,0.5]];portConstraint=eastwest;" parent="37" vertex="1">
                    <mxGeometry y="370" width="520" height="26" as="geometry"/>
                </mxCell>
                <mxCell id="55" value="+ findVertexStorageByID(id: String): VertexStorage" style="text;strokeColor=none;fillColor=#ffffff;align=left;verticalAlign=top;spacingLeft=4;spacingRight=4;overflow=hidden;rotatable=0;points=[[0,0.5],[1,0.5]];portConstraint=eastwest;" parent="37" vertex="1">
                    <mxGeometry y="396" width="520" height="26" as="geometry"/>
                </mxCell>
                <mxCell id="56" value="+ getID(): String" style="text;strokeColor=none;fillColor=#ffffff;align=left;verticalAlign=top;spacingLeft=4;spacingRight=4;overflow=hidden;rotatable=0;points=[[0,0.5],[1,0.5]];portConstraint=eastwest;" parent="37" vertex="1">
                    <mxGeometry y="422" width="520" height="26" as="geometry"/>
                </mxCell>
                <mxCell id="57" value="+ clear()" style="text;strokeColor=none;fillColor=#ffffff;align=left;verticalAlign=top;spacingLeft=4;spacingRight=4;overflow=hidden;rotatable=0;points=[[0,0.5],[1,0.5]];portConstraint=eastwest;" parent="37" vertex="1">
                    <mxGeometry y="448" width="520" height="26" as="geometry"/>
                </mxCell>
                <mxCell id="58" value="+ getMaxID(): String" style="text;strokeColor=none;fillColor=#ffffff;align=left;verticalAlign=top;spacingLeft=4;spacingRight=4;overflow=hidden;rotatable=0;points=[[0,0.5],[1,0.5]];portConstraint=eastwest;" parent="37" vertex="1">
                    <mxGeometry y="474" width="520" height="26" as="geometry"/>
                </mxCell>
                <mxCell id="59" value="+ isModified(): Boolean" style="text;strokeColor=none;fillColor=#ffffff;align=left;verticalAlign=top;spacingLeft=4;spacingRight=4;overflow=hidden;rotatable=0;points=[[0,0.5],[1,0.5]];portConstraint=eastwest;" parent="37" vertex="1">
                    <mxGeometry y="500" width="520" height="26" as="geometry"/>
                </mxCell>
                <mxCell id="84" value="GraphConfiguration" style="swimlane;fontStyle=1;align=center;verticalAlign=top;childLayout=stackLayout;horizontal=1;startSize=26;horizontalStack=0;resizeParent=1;resizeParentMax=0;resizeLast=0;collapsible=1;marginBottom=0;fontSize=12;fillColor=#ffffff;" parent="1" vertex="1">
                    <mxGeometry x="-514" y="-390" width="260" height="164" as="geometry"/>
                </mxCell>
                <mxCell id="85" value="- selectedCells:  ArrayList&lt;mxCell&gt;" style="text;strokeColor=none;fillColor=#ffffff;align=left;verticalAlign=top;spacingLeft=4;spacingRight=4;overflow=hidden;rotatable=0;points=[[0,0.5],[1,0.5]];portConstraint=eastwest;" parent="84" vertex="1">
                    <mxGeometry y="26" width="260" height="26" as="geometry"/>
                </mxCell>
                <mxCell id="88" value="- graph: mxGraph" style="text;strokeColor=none;fillColor=#ffffff;align=left;verticalAlign=top;spacingLeft=4;spacingRight=4;overflow=hidden;rotatable=0;points=[[0,0.5],[1,0.5]];portConstraint=eastwest;" parent="84" vertex="1">
                    <mxGeometry y="52" width="260" height="26" as="geometry"/>
                </mxCell>
                <mxCell id="86" value="" style="line;strokeWidth=1;fillColor=#FFFFFF;align=left;verticalAlign=middle;spacingTop=-1;spacingLeft=3;spacingRight=3;rotatable=0;labelPosition=right;points=[];portConstraint=eastwest;labelBackgroundColor=#FFFFFF;labelBorderColor=#FFFFFF;" parent="84" vertex="1">
                    <mxGeometry y="78" width="260" height="8" as="geometry"/>
                </mxCell>
                <mxCell id="87" value="+ configureGraphListener(editor: mxEditor)" style="text;strokeColor=none;fillColor=#ffffff;align=left;verticalAlign=top;spacingLeft=4;spacingRight=4;overflow=hidden;rotatable=0;points=[[0,0.5],[1,0.5]];portConstraint=eastwest;shadow=0;" parent="84" vertex="1">
                    <mxGeometry y="86" width="260" height="26" as="geometry"/>
                </mxCell>
                <mxCell id="89" value="+ configureEditorKeyBinding(editor: mxEditor)" style="text;strokeColor=none;fillColor=#ffffff;align=left;verticalAlign=top;spacingLeft=4;spacingRight=4;overflow=hidden;rotatable=0;points=[[0,0.5],[1,0.5]];portConstraint=eastwest;" parent="84" vertex="1">
                    <mxGeometry y="112" width="260" height="26" as="geometry"/>
                </mxCell>
                <mxCell id="90" value="+ getCellsIDs(): ArrayList&lt;String&gt;" style="text;strokeColor=none;fillColor=#ffffff;align=left;verticalAlign=top;spacingLeft=4;spacingRight=4;overflow=hidden;rotatable=0;points=[[0,0.5],[1,0.5]];portConstraint=eastwest;" parent="84" vertex="1">
                    <mxGeometry y="138" width="260" height="26" as="geometry"/>
                </mxCell>
                <mxCell id="12" value="EdgeStorage" style="swimlane;fontStyle=1;align=center;verticalAlign=top;childLayout=stackLayout;horizontal=1;startSize=26;horizontalStack=0;resizeParent=1;resizeParentMax=0;resizeLast=0;collapsible=1;marginBottom=0;fontSize=12;" parent="1" vertex="1">
                    <mxGeometry x="420" y="-510" width="160" height="264" as="geometry"/>
                </mxCell>
                <mxCell id="27" value="+ edge: mxCell" style="text;strokeColor=none;fillColor=#ffffff;align=left;verticalAlign=top;spacingLeft=4;spacingRight=4;overflow=hidden;rotatable=0;points=[[0,0.5],[1,0.5]];portConstraint=eastwest;" parent="12" vertex="1">
                    <mxGeometry y="26" width="160" height="25" as="geometry"/>
                </mxCell>
                <mxCell id="13" value="-  id: string" style="text;strokeColor=none;fillColor=#ffffff;align=left;verticalAlign=top;spacingLeft=4;spacingRight=4;overflow=hidden;rotatable=0;points=[[0,0.5],[1,0.5]];portConstraint=eastwest;" parent="12" vertex="1">
                    <mxGeometry y="51" width="160" height="26" as="geometry"/>
                </mxCell>
                <mxCell id="26" value="- srcVertex: mxCell" style="text;strokeColor=none;fillColor=#ffffff;align=left;verticalAlign=top;spacingLeft=4;spacingRight=4;overflow=hidden;rotatable=0;points=[[0,0.5],[1,0.5]];portConstraint=eastwest;" parent="12" vertex="1">
                    <mxGeometry y="77" width="160" height="26" as="geometry"/>
                </mxCell>
                <mxCell id="28" value="- targetVertex: mxCell" style="text;strokeColor=none;fillColor=#ffffff;align=left;verticalAlign=top;spacingLeft=4;spacingRight=4;overflow=hidden;rotatable=0;points=[[0,0.5],[1,0.5]];portConstraint=eastwest;" parent="12" vertex="1">
                    <mxGeometry y="103" width="160" height="26" as="geometry"/>
                </mxCell>
                <mxCell id="29" value="- url: string" style="text;strokeColor=none;fillColor=#ffffff;align=left;verticalAlign=top;spacingLeft=4;spacingRight=4;overflow=hidden;rotatable=0;points=[[0,0.5],[1,0.5]];portConstraint=eastwest;" parent="12" vertex="1">
                    <mxGeometry y="129" width="160" height="25" as="geometry"/>
                </mxCell>
                <mxCell id="72" value="- styleStorage: styleStorage" style="text;strokeColor=none;fillColor=#ffffff;align=left;verticalAlign=top;spacingLeft=4;spacingRight=4;overflow=hidden;rotatable=0;points=[[0,0.5],[1,0.5]];portConstraint=eastwest;" parent="12" vertex="1">
                    <mxGeometry y="154" width="160" height="25" as="geometry"/>
                </mxCell>
                <mxCell id="436" value="- navigationService" style="text;strokeColor=none;fillColor=#ffffff;align=left;verticalAlign=top;spacingLeft=4;spacingRight=4;overflow=hidden;rotatable=0;points=[[0,0.5],[1,0.5]];portConstraint=eastwest;" parent="12" vertex="1">
                    <mxGeometry y="179" width="160" height="26" as="geometry"/>
                </mxCell>
                <mxCell id="437" value="- parentID: string" style="text;strokeColor=none;fillColor=#ffffff;align=left;verticalAlign=top;spacingLeft=4;spacingRight=4;overflow=hidden;rotatable=0;points=[[0,0.5],[1,0.5]];portConstraint=eastwest;" parent="12" vertex="1">
                    <mxGeometry y="205" width="160" height="26" as="geometry"/>
                </mxCell>
                <mxCell id="14" value="" style="line;strokeWidth=1;fillColor=none;align=left;verticalAlign=middle;spacingTop=-1;spacingLeft=3;spacingRight=3;rotatable=0;labelPosition=right;points=[];portConstraint=eastwest;" parent="12" vertex="1">
                    <mxGeometry y="231" width="160" height="8" as="geometry"/>
                </mxCell>
                <mxCell id="15" value="+ sync(): void" style="text;strokeColor=none;fillColor=#ffffff;align=left;verticalAlign=top;spacingLeft=4;spacingRight=4;overflow=hidden;rotatable=0;points=[[0,0.5],[1,0.5]];portConstraint=eastwest;" parent="12" vertex="1">
                    <mxGeometry y="239" width="160" height="25" as="geometry"/>
                </mxCell>
                <mxCell id="16" value="VertexStorage" style="swimlane;fontStyle=1;align=center;verticalAlign=top;childLayout=stackLayout;horizontal=1;startSize=26;horizontalStack=0;resizeParent=1;resizeParentMax=0;resizeLast=0;collapsible=1;marginBottom=0;fontSize=12;" parent="1" vertex="1">
                    <mxGeometry x="610" y="-510" width="230" height="366" as="geometry"/>
                </mxCell>
                <mxCell id="17" value="- vertex: mxCell" style="text;strokeColor=none;fillColor=#ffffff;align=left;verticalAlign=top;spacingLeft=4;spacingRight=4;overflow=hidden;rotatable=0;points=[[0,0.5],[1,0.5]];portConstraint=eastwest;" parent="16" vertex="1">
                    <mxGeometry y="26" width="230" height="26" as="geometry"/>
                </mxCell>
                <mxCell id="62" value="- id: String" style="text;strokeColor=none;fillColor=#ffffff;align=left;verticalAlign=top;spacingLeft=4;spacingRight=4;overflow=hidden;rotatable=0;points=[[0,0.5],[1,0.5]];portConstraint=eastwest;" parent="16" vertex="1">
                    <mxGeometry y="52" width="230" height="26" as="geometry"/>
                </mxCell>
                <mxCell id="60" value="- parentId: String" style="text;strokeColor=none;fillColor=#ffffff;align=left;verticalAlign=top;spacingLeft=4;spacingRight=4;overflow=hidden;rotatable=0;points=[[0,0.5],[1,0.5]];portConstraint=eastwest;" parent="16" vertex="1">
                    <mxGeometry y="78" width="230" height="25" as="geometry"/>
                </mxCell>
                <mxCell id="66" value="- styleStorage: StyleStorage" style="text;strokeColor=none;fillColor=#ffffff;align=left;verticalAlign=top;spacingLeft=4;spacingRight=4;overflow=hidden;rotatable=0;points=[[0,0.5],[1,0.5]];portConstraint=eastwest;" parent="16" vertex="1">
                    <mxGeometry y="103" width="230" height="25" as="geometry"/>
                </mxCell>
                <mxCell id="61" value="- component: UIComponent" style="text;strokeColor=#6c8ebf;fillColor=#dae8fc;align=left;verticalAlign=top;spacingLeft=4;spacingRight=4;overflow=hidden;rotatable=0;points=[[0,0.5],[1,0.5]];portConstraint=eastwest;" parent="16" vertex="1">
                    <mxGeometry y="128" width="230" height="25" as="geometry"/>
                </mxCell>
                <mxCell id="63" value="- children: Object" style="text;strokeColor=none;fillColor=#ffffff;align=left;verticalAlign=top;spacingLeft=4;spacingRight=4;overflow=hidden;rotatable=0;points=[[0,0.5],[1,0.5]];portConstraint=eastwest;" parent="16" vertex="1">
                    <mxGeometry y="153" width="230" height="25" as="geometry"/>
                </mxCell>
                <mxCell id="64" value="- dataBinind: DataBinding" style="text;strokeColor=none;fillColor=#ffffff;align=left;verticalAlign=top;spacingLeft=4;spacingRight=4;overflow=hidden;rotatable=0;points=[[0,0.5],[1,0.5]];portConstraint=eastwest;" parent="16" vertex="1">
                    <mxGeometry y="178" width="230" height="25" as="geometry"/>
                </mxCell>
                <mxCell id="65" value="- isPrimary: Boolean" style="text;strokeColor=none;fillColor=#ffffff;align=left;verticalAlign=top;spacingLeft=4;spacingRight=4;overflow=hidden;rotatable=0;points=[[0,0.5],[1,0.5]];portConstraint=eastwest;" parent="16" vertex="1">
                    <mxGeometry y="203" width="230" height="25" as="geometry"/>
                </mxCell>
                <mxCell id="18" value="" style="line;strokeWidth=1;fillColor=none;align=left;verticalAlign=middle;spacingTop=-1;spacingLeft=3;spacingRight=3;rotatable=0;labelPosition=right;points=[];portConstraint=eastwest;shadow=0;" parent="16" vertex="1">
                    <mxGeometry y="228" width="230" height="8" as="geometry"/>
                </mxCell>
                <mxCell id="19" value="+ isBasicComponent(): Boolean" style="text;strokeColor=none;fillColor=#ffffff;align=left;verticalAlign=top;spacingLeft=4;spacingRight=4;overflow=hidden;rotatable=0;points=[[0,0.5],[1,0.5]];portConstraint=eastwest;" parent="16" vertex="1">
                    <mxGeometry y="236" width="230" height="26" as="geometry"/>
                </mxCell>
                <mxCell id="67" value="+ getStyle()" style="text;strokeColor=none;fillColor=#ffffff;align=left;verticalAlign=top;spacingLeft=4;spacingRight=4;overflow=hidden;rotatable=0;points=[[0,0.5],[1,0.5]];portConstraint=eastwest;" parent="16" vertex="1">
                    <mxGeometry y="262" width="230" height="26" as="geometry"/>
                </mxCell>
                <mxCell id="68" value="+ addChild(childID, childVertex, property)" style="text;strokeColor=none;fillColor=#ffffff;align=left;verticalAlign=top;spacingLeft=4;spacingRight=4;overflow=hidden;rotatable=0;points=[[0,0.5],[1,0.5]];portConstraint=eastwest;" parent="16" vertex="1">
                    <mxGeometry y="288" width="230" height="26" as="geometry"/>
                </mxCell>
                <mxCell id="69" value="+ sync()" style="text;strokeColor=none;fillColor=#ffffff;align=left;verticalAlign=top;spacingLeft=4;spacingRight=4;overflow=hidden;rotatable=0;points=[[0,0.5],[1,0.5]];portConstraint=eastwest;" parent="16" vertex="1">
                    <mxGeometry y="314" width="230" height="26" as="geometry"/>
                </mxCell>
                <mxCell id="70" value="+ syncProperties()" style="text;strokeColor=none;fillColor=#ffffff;align=left;verticalAlign=top;spacingLeft=4;spacingRight=4;overflow=hidden;rotatable=0;points=[[0,0.5],[1,0.5]];portConstraint=eastwest;" parent="16" vertex="1">
                    <mxGeometry y="340" width="230" height="26" as="geometry"/>
                </mxCell>
                <mxCell id="8" value="StyleStorage" style="swimlane;fontStyle=1;align=center;verticalAlign=top;childLayout=stackLayout;horizontal=1;startSize=26;horizontalStack=0;resizeParent=1;resizeParentMax=0;resizeLast=0;collapsible=1;marginBottom=0;fontSize=12;" parent="1" vertex="1">
                    <mxGeometry x="486" y="-130" width="200" height="322" as="geometry"/>
                </mxCell>
                <mxCell id="74" value="+ setFontSize(theSize: String)" style="text;strokeColor=none;fillColor=#ffffff;align=left;verticalAlign=top;spacingLeft=4;spacingRight=4;overflow=hidden;rotatable=0;points=[[0,0.5],[1,0.5]];portConstraint=eastwest;" parent="8" vertex="1">
                    <mxGeometry y="26" width="200" height="26" as="geometry"/>
                </mxCell>
                <mxCell id="75" value="+ setFontColor(theColor: String)" style="text;strokeColor=none;fillColor=#ffffff;align=left;verticalAlign=top;spacingLeft=4;spacingRight=4;overflow=hidden;rotatable=0;points=[[0,0.5],[1,0.5]];portConstraint=eastwest;" parent="8" vertex="1">
                    <mxGeometry y="52" width="200" height="26" as="geometry"/>
                </mxCell>
                <mxCell id="76" value="+ setFillColor(theColor: String)" style="text;strokeColor=none;fillColor=#ffffff;align=left;verticalAlign=top;spacingLeft=4;spacingRight=4;overflow=hidden;rotatable=0;points=[[0,0.5],[1,0.5]];portConstraint=eastwest;" parent="8" vertex="1">
                    <mxGeometry y="78" width="200" height="26" as="geometry"/>
                </mxCell>
                <mxCell id="77" value="+ setStrokeColor(theColor: String)" style="text;strokeColor=none;fillColor=#ffffff;align=left;verticalAlign=top;spacingLeft=4;spacingRight=4;overflow=hidden;rotatable=0;points=[[0,0.5],[1,0.5]];portConstraint=eastwest;" parent="8" vertex="1">
                    <mxGeometry y="104" width="200" height="26" as="geometry"/>
                </mxCell>
                <mxCell id="78" value="+ setRounded(theRounded: String)" style="text;strokeColor=none;fillColor=#ffffff;align=left;verticalAlign=top;spacingLeft=4;spacingRight=4;overflow=hidden;rotatable=0;points=[[0,0.5],[1,0.5]];portConstraint=eastwest;" parent="8" vertex="1">
                    <mxGeometry y="130" width="200" height="26" as="geometry"/>
                </mxCell>
                <mxCell id="79" value="+ setShadow(theShadow: String)" style="text;strokeColor=none;fillColor=#ffffff;align=left;verticalAlign=top;spacingLeft=4;spacingRight=4;overflow=hidden;rotatable=0;points=[[0,0.5],[1,0.5]];portConstraint=eastwest;" parent="8" vertex="1">
                    <mxGeometry y="156" width="200" height="26" as="geometry"/>
                </mxCell>
                <mxCell id="165" value="- style: Object" style="text;strokeColor=none;fillColor=#ffffff;align=left;verticalAlign=top;spacingLeft=4;spacingRight=4;overflow=hidden;rotatable=0;points=[[0,0.5],[1,0.5]];portConstraint=eastwest;" parent="8" vertex="1">
                    <mxGeometry y="182" width="200" height="26" as="geometry"/>
                </mxCell>
                <mxCell id="9" value="- style: Object" style="text;strokeColor=none;fillColor=#ffffff;align=left;verticalAlign=top;spacingLeft=4;spacingRight=4;overflow=hidden;rotatable=0;points=[[0,0.5],[1,0.5]];portConstraint=eastwest;" parent="8" vertex="1">
                    <mxGeometry y="208" width="200" height="26" as="geometry"/>
                </mxCell>
                <mxCell id="71" value="- name: String" style="text;strokeColor=none;fillColor=#ffffff;align=left;verticalAlign=top;spacingLeft=4;spacingRight=4;overflow=hidden;rotatable=0;points=[[0,0.5],[1,0.5]];portConstraint=eastwest;" parent="8" vertex="1">
                    <mxGeometry y="234" width="200" height="28" as="geometry"/>
                </mxCell>
                <mxCell id="10" value="" style="line;strokeWidth=1;fillColor=none;align=left;verticalAlign=middle;spacingTop=-1;spacingLeft=3;spacingRight=3;rotatable=0;labelPosition=right;points=[];portConstraint=eastwest;" parent="8" vertex="1">
                    <mxGeometry y="262" width="200" height="8" as="geometry"/>
                </mxCell>
                <mxCell id="11" value="+ getStyle(): Object" style="text;strokeColor=none;fillColor=#ffffff;align=left;verticalAlign=top;spacingLeft=4;spacingRight=4;overflow=hidden;rotatable=0;points=[[0,0.5],[1,0.5]];portConstraint=eastwest;" parent="8" vertex="1">
                    <mxGeometry y="270" width="200" height="26" as="geometry"/>
                </mxCell>
                <mxCell id="73" value="+ setOpacity(theOpacity: String)" style="text;strokeColor=none;fillColor=#ffffff;align=left;verticalAlign=top;spacingLeft=4;spacingRight=4;overflow=hidden;rotatable=0;points=[[0,0.5],[1,0.5]];portConstraint=eastwest;" parent="8" vertex="1">
                    <mxGeometry y="296" width="200" height="26" as="geometry"/>
                </mxCell>
                <mxCell id="224" value="Extends" style="endArrow=block;endSize=16;endFill=0;html=1;fontSize=12;exitX=0.5;exitY=0;exitDx=0;exitDy=0;noLabel=1;fontColor=none;" parent="1" source="168" edge="1">
                    <mxGeometry width="160" relative="1" as="geometry">
                        <mxPoint x="220" y="180" as="sourcePoint"/>
                        <mxPoint x="-510" y="420" as="targetPoint"/>
                        <Array as="points">
                            <mxPoint x="1050" y="470"/>
                            <mxPoint x="-500" y="470"/>
                        </Array>
                    </mxGeometry>
                </mxCell>
                <mxCell id="225" value="Extends" style="endArrow=block;endSize=16;endFill=0;html=1;fontSize=12;exitX=0.5;exitY=0;exitDx=0;exitDy=0;noLabel=1;fontColor=none;entryX=0.539;entryY=0.956;entryDx=0;entryDy=0;entryPerimeter=0;" parent="1" target="101" edge="1">
                    <mxGeometry x="-0.0238" width="160" relative="1" as="geometry">
                        <mxPoint x="1380" y="510" as="sourcePoint"/>
                        <mxPoint x="-495" y="419" as="targetPoint"/>
                        <Array as="points">
                            <mxPoint x="1380" y="470"/>
                            <mxPoint x="1365" y="470"/>
                            <mxPoint x="355" y="470"/>
                            <mxPoint x="-505" y="470"/>
                        </Array>
                        <mxPoint as="offset"/>
                    </mxGeometry>
                </mxCell>
                <mxCell id="228" value="ExternalRepresentation" style="text;align=center;fontStyle=1;verticalAlign=middle;spacingLeft=3;spacingRight=3;strokeColor=none;rotatable=0;points=[[0,0.5],[1,0.5]];portConstraint=eastwest;fontSize=35;" parent="1" vertex="1">
                    <mxGeometry x="-470" y="-720" width="293" height="26" as="geometry"/>
                </mxCell>
                <mxCell id="229" value="CreateComponentStrategy" style="text;align=center;fontStyle=1;verticalAlign=middle;spacingLeft=3;spacingRight=3;strokeColor=none;rotatable=0;points=[[0,0.5],[1,0.5]];portConstraint=eastwest;fontSize=35;" parent="1" vertex="1">
                    <mxGeometry x="-2380" y="260" width="293" height="26" as="geometry"/>
                </mxCell>
                <mxCell id="269" value="" style="endArrow=open;endFill=1;endSize=12;html=1;fontSize=12;exitX=0;exitY=0.5;exitDx=0;exitDy=0;entryX=0.5;entryY=0;entryDx=0;entryDy=0;" parent="1" source="256" target="265" edge="1">
                    <mxGeometry width="160" relative="1" as="geometry">
                        <mxPoint x="-1890" y="-210" as="sourcePoint"/>
                        <mxPoint x="-1730" y="-210" as="targetPoint"/>
                        <Array as="points">
                            <mxPoint x="-1780" y="-280"/>
                        </Array>
                    </mxGeometry>
                </mxCell>
                <mxCell id="270" value="" style="endArrow=open;endFill=1;endSize=12;html=1;fontSize=12;exitX=0;exitY=0.5;exitDx=0;exitDy=0;entryX=0.5;entryY=0;entryDx=0;entryDy=0;" parent="1" source="249" target="250" edge="1">
                    <mxGeometry width="160" relative="1" as="geometry">
                        <mxPoint x="-1370" y="-370" as="sourcePoint"/>
                        <mxPoint x="-1210" y="-370" as="targetPoint"/>
                        <Array as="points">
                            <mxPoint x="-1590" y="-401"/>
                        </Array>
                    </mxGeometry>
                </mxCell>
                <mxCell id="275" value="Extends" style="endArrow=block;endSize=16;endFill=0;html=1;fontSize=12;exitX=0.5;exitY=0;exitDx=0;exitDy=0;fontColor=none;noLabel=1;" parent="1" source="271" edge="1">
                    <mxGeometry width="160" relative="1" as="geometry">
                        <mxPoint x="-1380" y="-210" as="sourcePoint"/>
                        <mxPoint x="-1280" y="-201" as="targetPoint"/>
                        <Array as="points">
                            <mxPoint x="-1505" y="-80"/>
                            <mxPoint x="-1280" y="-80"/>
                        </Array>
                    </mxGeometry>
                </mxCell>
                <mxCell id="277" value="1" style="endArrow=open;endSize=12;startArrow=diamondThin;startSize=14;startFill=0;edgeStyle=orthogonalEdgeStyle;align=left;verticalAlign=bottom;fontSize=12;fontColor=none;exitX=0.25;exitY=0;exitDx=0;exitDy=0;entryX=0.5;entryY=0;entryDx=0;entryDy=0;html=1;noLabel=1;" parent="1" source="271" target="235" edge="1">
                    <mxGeometry x="-1" y="3" relative="1" as="geometry">
                        <mxPoint x="-1400" y="-210" as="sourcePoint"/>
                        <mxPoint x="-1240" y="-210" as="targetPoint"/>
                        <Array as="points">
                            <mxPoint x="-1567" y="-80"/>
                            <mxPoint x="-1860" y="-80"/>
                            <mxPoint x="-1860" y="-600"/>
                            <mxPoint x="-1280" y="-600"/>
                        </Array>
                    </mxGeometry>
                </mxCell>
                <mxCell id="287" value="Extends" style="endArrow=block;endSize=16;endFill=0;html=1;fontSize=12;exitX=0.5;exitY=0;exitDx=0;exitDy=0;fontColor=none;noLabel=1;" parent="1" source="280" edge="1">
                    <mxGeometry width="160" relative="1" as="geometry">
                        <mxPoint x="-1495" y="-10" as="sourcePoint"/>
                        <mxPoint x="-1280" y="-200" as="targetPoint"/>
                        <Array as="points">
                            <mxPoint x="-1300" y="-80"/>
                            <mxPoint x="-1280" y="-80"/>
                        </Array>
                    </mxGeometry>
                </mxCell>
                <mxCell id="293" value="1" style="endArrow=open;endSize=12;startArrow=diamondThin;startSize=14;startFill=0;edgeStyle=orthogonalEdgeStyle;align=left;verticalAlign=bottom;fontSize=12;fontColor=none;exitX=0.25;exitY=0;exitDx=0;exitDy=0;html=1;noLabel=1;" parent="1" source="288" edge="1">
                    <mxGeometry x="-1" y="3" relative="1" as="geometry">
                        <mxPoint x="-1557.5" y="-10" as="sourcePoint"/>
                        <mxPoint x="-1280" y="-568" as="targetPoint"/>
                        <Array as="points">
                            <mxPoint x="-1875" y="-600"/>
                            <mxPoint x="-1280" y="-600"/>
                        </Array>
                    </mxGeometry>
                </mxCell>
                <mxCell id="299" value="1" style="endArrow=open;endSize=12;startArrow=diamondThin;startSize=14;startFill=0;edgeStyle=orthogonalEdgeStyle;align=left;verticalAlign=bottom;fontSize=12;fontColor=none;exitX=0.25;exitY=0;exitDx=0;exitDy=0;html=1;noLabel=1;" parent="1" source="295" edge="1">
                    <mxGeometry x="-1" y="3" relative="1" as="geometry">
                        <mxPoint x="-1857.5" y="-10" as="sourcePoint"/>
                        <mxPoint x="-1280" y="-570" as="targetPoint"/>
                        <Array as="points">
                            <mxPoint x="-2137" y="-600"/>
                            <mxPoint x="-1280" y="-600"/>
                        </Array>
                    </mxGeometry>
                </mxCell>
                <mxCell id="304" value="1" style="endArrow=open;endSize=12;startArrow=diamondThin;startSize=14;startFill=0;edgeStyle=orthogonalEdgeStyle;align=left;verticalAlign=bottom;fontSize=12;fontColor=none;exitX=0.25;exitY=0;exitDx=0;exitDy=0;html=1;noLabel=1;" parent="1" source="300" edge="1">
                    <mxGeometry x="-1" y="3" relative="1" as="geometry">
                        <mxPoint x="-2127.4999999999995" y="-10" as="sourcePoint"/>
                        <mxPoint x="-1280" y="-570" as="targetPoint"/>
                        <Array as="points">
                            <mxPoint x="-2407" y="-600"/>
                            <mxPoint x="-1280" y="-600"/>
                        </Array>
                    </mxGeometry>
                </mxCell>
                <mxCell id="305" value="Extends" style="endArrow=block;endSize=16;endFill=0;html=1;fontSize=12;fontColor=none;exitX=0.5;exitY=0;exitDx=0;exitDy=0;noLabel=1;" parent="1" source="300" edge="1">
                    <mxGeometry width="160" relative="1" as="geometry">
                        <mxPoint x="-1980" y="-340" as="sourcePoint"/>
                        <mxPoint x="-1280" y="-201" as="targetPoint"/>
                        <Array as="points">
                            <mxPoint x="-2345" y="-80"/>
                            <mxPoint x="-1280" y="-80"/>
                        </Array>
                    </mxGeometry>
                </mxCell>
                <mxCell id="306" value="Extends" style="endArrow=block;endSize=16;endFill=0;html=1;fontSize=12;fontColor=none;exitX=0.5;exitY=0;exitDx=0;exitDy=0;noLabel=1;" parent="1" source="295" edge="1">
                    <mxGeometry width="160" relative="1" as="geometry">
                        <mxPoint x="-2335" y="-10" as="sourcePoint"/>
                        <mxPoint x="-1280" y="-200" as="targetPoint"/>
                        <Array as="points">
                            <mxPoint x="-2075" y="-80"/>
                            <mxPoint x="-1280" y="-80"/>
                        </Array>
                    </mxGeometry>
                </mxCell>
                <mxCell id="307" value="Extends" style="endArrow=block;endSize=16;endFill=0;html=1;fontSize=12;fontColor=none;exitX=0.534;exitY=-0.021;exitDx=0;exitDy=0;noLabel=1;exitPerimeter=0;" parent="1" source="288" edge="1">
                    <mxGeometry width="160" relative="1" as="geometry">
                        <mxPoint x="-2065" y="-10" as="sourcePoint"/>
                        <mxPoint x="-1280" y="-200" as="targetPoint"/>
                        <Array as="points">
                            <mxPoint x="-1805" y="-80"/>
                            <mxPoint x="-1280" y="-80"/>
                        </Array>
                    </mxGeometry>
                </mxCell>
                <mxCell id="320" value="Extends" style="endArrow=block;endSize=16;endFill=0;html=1;fontSize=12;fontColor=none;exitX=0.5;exitY=0;exitDx=0;exitDy=0;noLabel=1;" parent="1" source="312" edge="1">
                    <mxGeometry width="160" relative="1" as="geometry">
                        <mxPoint x="-2335" y="-10" as="sourcePoint"/>
                        <mxPoint x="-1280" y="-200" as="targetPoint"/>
                        <Array as="points">
                            <mxPoint x="-2605" y="-80"/>
                            <mxPoint x="-1280" y="-80"/>
                        </Array>
                    </mxGeometry>
                </mxCell>
                <mxCell id="321" value="1" style="endArrow=open;endSize=12;startArrow=diamondThin;startSize=14;startFill=0;edgeStyle=orthogonalEdgeStyle;align=left;verticalAlign=bottom;fontSize=12;fontColor=none;exitX=0.25;exitY=0;exitDx=0;exitDy=0;html=1;noLabel=1;" parent="1" source="312" edge="1">
                    <mxGeometry x="-1" y="3" relative="1" as="geometry">
                        <mxPoint x="-2397.4999999999995" y="-10" as="sourcePoint"/>
                        <mxPoint x="-1280" y="-570" as="targetPoint"/>
                        <Array as="points">
                            <mxPoint x="-2667" y="-600"/>
                            <mxPoint x="-1280" y="-600"/>
                        </Array>
                    </mxGeometry>
                </mxCell>
                <mxCell id="338" value="Extends" style="endArrow=block;endSize=16;endFill=0;html=1;fontSize=12;exitX=0.5;exitY=0;exitDx=0;exitDy=0;fontColor=none;noLabel=1;" parent="1" source="322" edge="1">
                    <mxGeometry width="160" relative="1" as="geometry">
                        <mxPoint x="-1495" y="-10" as="sourcePoint"/>
                        <mxPoint x="-1280" y="-200" as="targetPoint"/>
                        <Array as="points">
                            <mxPoint x="-1125" y="-80"/>
                            <mxPoint x="-1280" y="-80"/>
                        </Array>
                    </mxGeometry>
                </mxCell>
                <mxCell id="339" value="Extends" style="endArrow=block;endSize=16;endFill=0;html=1;fontSize=12;exitX=0.5;exitY=0;exitDx=0;exitDy=0;fontColor=none;noLabel=1;" parent="1" source="324" edge="1">
                    <mxGeometry width="160" relative="1" as="geometry">
                        <mxPoint x="-1115" y="-10" as="sourcePoint"/>
                        <mxPoint x="-1280" y="-200" as="targetPoint"/>
                        <Array as="points">
                            <mxPoint x="-945" y="-80"/>
                            <mxPoint x="-1280" y="-80"/>
                        </Array>
                    </mxGeometry>
                </mxCell>
                <mxCell id="340" value="Extends" style="endArrow=block;endSize=16;endFill=0;html=1;fontSize=12;exitX=0.5;exitY=0;exitDx=0;exitDy=0;fontColor=none;noLabel=1;" parent="1" source="335" edge="1">
                    <mxGeometry width="160" relative="1" as="geometry">
                        <mxPoint x="-935" y="-10" as="sourcePoint"/>
                        <mxPoint x="-1280" y="-200" as="targetPoint"/>
                        <Array as="points">
                            <mxPoint x="-805" y="-80"/>
                            <mxPoint x="-1280" y="-80"/>
                        </Array>
                    </mxGeometry>
                </mxCell>
                <mxCell id="341" value="Extends" style="endArrow=block;endSize=16;endFill=0;html=1;fontSize=12;exitX=0.5;exitY=0;exitDx=0;exitDy=0;fontColor=none;noLabel=1;" parent="1" source="332" edge="1">
                    <mxGeometry width="160" relative="1" as="geometry">
                        <mxPoint x="-795" y="-10" as="sourcePoint"/>
                        <mxPoint x="-1280" y="-200" as="targetPoint"/>
                        <Array as="points">
                            <mxPoint x="-695" y="-80"/>
                            <mxPoint x="-1280" y="-80"/>
                        </Array>
                    </mxGeometry>
                </mxCell>
                <mxCell id="250" value="ServiceComponentModel" style="swimlane;fontStyle=1;align=center;verticalAlign=top;childLayout=stackLayout;horizontal=1;startSize=26;horizontalStack=0;resizeParent=1;resizeParentMax=0;resizeLast=0;collapsible=1;marginBottom=0;shadow=0;labelBackgroundColor=#FFFFFF;strokeWidth=1;fillColor=#ffffff;gradientColor=none;fontSize=12;" parent="1" vertex="1">
                    <mxGeometry x="-1687" y="-371" width="200" height="242" as="geometry"/>
                </mxCell>
                <mxCell id="254" value="- name: String" style="text;strokeColor=none;fillColor=#ffffff;align=left;verticalAlign=top;spacingLeft=4;spacingRight=4;overflow=hidden;rotatable=0;points=[[0,0.5],[1,0.5]];portConstraint=eastwest;" parent="250" vertex="1">
                    <mxGeometry y="26" width="200" height="26" as="geometry"/>
                </mxCell>
                <mxCell id="251" value="- preference: Number" style="text;strokeColor=none;fillColor=#ffffff;align=left;verticalAlign=top;spacingLeft=4;spacingRight=4;overflow=hidden;rotatable=0;points=[[0,0.5],[1,0.5]];portConstraint=eastwest;" parent="250" vertex="1">
                    <mxGeometry y="52" width="200" height="26" as="geometry"/>
                </mxCell>
                <mxCell id="256" value="- serviceType: ServiceMappingType" style="text;strokeColor=none;fillColor=#ffffff;align=left;verticalAlign=top;spacingLeft=4;spacingRight=4;overflow=hidden;rotatable=0;points=[[0,0.5],[1,0.5]];portConstraint=eastwest;" parent="250" vertex="1">
                    <mxGeometry y="78" width="200" height="26" as="geometry"/>
                </mxCell>
                <mxCell id="257" value="- code: String" style="text;strokeColor=none;fillColor=#ffffff;align=left;verticalAlign=top;spacingLeft=4;spacingRight=4;overflow=hidden;rotatable=0;points=[[0,0.5],[1,0.5]];portConstraint=eastwest;" parent="250" vertex="1">
                    <mxGeometry y="104" width="200" height="26" as="geometry"/>
                </mxCell>
                <mxCell id="258" value="- serviceID: String" style="text;strokeColor=none;fillColor=#ffffff;align=left;verticalAlign=top;spacingLeft=4;spacingRight=4;overflow=hidden;rotatable=0;points=[[0,0.5],[1,0.5]];portConstraint=eastwest;" parent="250" vertex="1">
                    <mxGeometry y="130" width="200" height="26" as="geometry"/>
                </mxCell>
                <mxCell id="255" value="- className: String" style="text;strokeColor=none;fillColor=#ffffff;align=left;verticalAlign=top;spacingLeft=4;spacingRight=4;overflow=hidden;rotatable=0;points=[[0,0.5],[1,0.5]];portConstraint=eastwest;" parent="250" vertex="1">
                    <mxGeometry y="156" width="200" height="26" as="geometry"/>
                </mxCell>
                <mxCell id="252" value="" style="line;strokeWidth=1;fillColor=#FFFFFF;align=left;verticalAlign=middle;spacingTop=-1;spacingLeft=3;spacingRight=3;rotatable=0;labelPosition=right;points=[];portConstraint=eastwest;" parent="250" vertex="1">
                    <mxGeometry y="182" width="200" height="8" as="geometry"/>
                </mxCell>
                <mxCell id="253" value="+ method(type): type" style="text;strokeColor=none;fillColor=#ffffff;align=left;verticalAlign=top;spacingLeft=4;spacingRight=4;overflow=hidden;rotatable=0;points=[[0,0.5],[1,0.5]];portConstraint=eastwest;" parent="250" vertex="1">
                    <mxGeometry y="190" width="200" height="26" as="geometry"/>
                </mxCell>
                <mxCell id="259" value="+ field: type" style="text;strokeColor=none;fillColor=#ffffff;align=left;verticalAlign=top;spacingLeft=4;spacingRight=4;overflow=hidden;rotatable=0;points=[[0,0.5],[1,0.5]];portConstraint=eastwest;" parent="250" vertex="1">
                    <mxGeometry y="216" width="200" height="26" as="geometry"/>
                </mxCell>
                <mxCell id="265" value="&lt;Enum&gt;&#10;ServiceMappingType" style="swimlane;fontStyle=0;childLayout=stackLayout;horizontal=1;startSize=32;fillColor=#ffffff;horizontalStack=0;resizeParent=1;resizeParentMax=0;resizeLast=0;collapsible=1;marginBottom=0;shadow=0;labelBackgroundColor=none;strokeWidth=1;fontSize=12;" parent="1" vertex="1">
                    <mxGeometry x="-1850" y="-240" width="140" height="110" as="geometry"/>
                </mxCell>
                <mxCell id="266" value="service" style="text;strokeColor=none;fillColor=#ffffff;align=left;verticalAlign=top;spacingLeft=4;spacingRight=4;overflow=hidden;rotatable=0;points=[[0,0.5],[1,0.5]];portConstraint=eastwest;" parent="265" vertex="1">
                    <mxGeometry y="32" width="140" height="26" as="geometry"/>
                </mxCell>
                <mxCell id="267" value="argument" style="text;strokeColor=none;fillColor=#ffffff;align=left;verticalAlign=top;spacingLeft=4;spacingRight=4;overflow=hidden;rotatable=0;points=[[0,0.5],[1,0.5]];portConstraint=eastwest;" parent="265" vertex="1">
                    <mxGeometry y="58" width="140" height="26" as="geometry"/>
                </mxCell>
                <mxCell id="268" value="none" style="text;strokeColor=none;fillColor=#ffffff;align=left;verticalAlign=top;spacingLeft=4;spacingRight=4;overflow=hidden;rotatable=0;points=[[0,0.5],[1,0.5]];portConstraint=eastwest;" parent="265" vertex="1">
                    <mxGeometry y="84" width="140" height="26" as="geometry"/>
                </mxCell>
                <mxCell id="271" value="Breadcrumb" style="swimlane;fontStyle=1;align=center;verticalAlign=top;childLayout=stackLayout;horizontal=1;startSize=26;horizontalStack=0;resizeParent=1;resizeParentMax=0;resizeLast=0;collapsible=1;marginBottom=0;shadow=0;labelBackgroundColor=none;strokeWidth=1;fillColor=#FFFFFF;gradientColor=none;fontSize=12;" parent="1" vertex="1">
                    <mxGeometry x="-1630" y="-20" width="250" height="86" as="geometry"/>
                </mxCell>
                <mxCell id="272" value="- componentList: ArrayList&lt;UIComponent&gt;" style="text;strokeColor=none;fillColor=#FFFFFF;align=left;verticalAlign=top;spacingLeft=4;spacingRight=4;overflow=hidden;rotatable=0;points=[[0,0.5],[1,0.5]];portConstraint=eastwest;" parent="271" vertex="1">
                    <mxGeometry y="26" width="250" height="26" as="geometry"/>
                </mxCell>
                <mxCell id="273" value="" style="line;strokeWidth=1;fillColor=none;align=left;verticalAlign=middle;spacingTop=-1;spacingLeft=3;spacingRight=3;rotatable=0;labelPosition=right;points=[];portConstraint=eastwest;" parent="271" vertex="1">
                    <mxGeometry y="52" width="250" height="8" as="geometry"/>
                </mxCell>
                <mxCell id="274" value="+ add(component: UIComponent)" style="text;strokeColor=none;fillColor=#FFFFFF;align=left;verticalAlign=top;spacingLeft=4;spacingRight=4;overflow=hidden;rotatable=0;points=[[0,0.5],[1,0.5]];portConstraint=eastwest;" parent="271" vertex="1">
                    <mxGeometry y="60" width="250" height="26" as="geometry"/>
                </mxCell>
                <mxCell id="295" value="FormComposite" style="swimlane;fontStyle=1;align=center;verticalAlign=top;childLayout=stackLayout;horizontal=1;startSize=26;horizontalStack=0;resizeParent=1;resizeParentMax=0;resizeLast=0;collapsible=1;marginBottom=0;shadow=0;labelBackgroundColor=none;strokeWidth=1;fillColor=#FFFFFF;gradientColor=none;fontSize=12;" parent="1" vertex="1">
                    <mxGeometry x="-2200" y="-20" width="250" height="86" as="geometry"/>
                </mxCell>
                <mxCell id="296" value="- componentList: ArrayList&lt;UIComponent&gt;" style="text;strokeColor=none;fillColor=#FFFFFF;align=left;verticalAlign=top;spacingLeft=4;spacingRight=4;overflow=hidden;rotatable=0;points=[[0,0.5],[1,0.5]];portConstraint=eastwest;" parent="295" vertex="1">
                    <mxGeometry y="26" width="250" height="26" as="geometry"/>
                </mxCell>
                <mxCell id="297" value="" style="line;strokeWidth=1;fillColor=none;align=left;verticalAlign=middle;spacingTop=-1;spacingLeft=3;spacingRight=3;rotatable=0;labelPosition=right;points=[];portConstraint=eastwest;" parent="295" vertex="1">
                    <mxGeometry y="52" width="250" height="8" as="geometry"/>
                </mxCell>
                <mxCell id="298" value="+ add(component: UIComponent)" style="text;strokeColor=none;fillColor=#FFFFFF;align=left;verticalAlign=top;spacingLeft=4;spacingRight=4;overflow=hidden;rotatable=0;points=[[0,0.5],[1,0.5]];portConstraint=eastwest;" parent="295" vertex="1">
                    <mxGeometry y="60" width="250" height="26" as="geometry"/>
                </mxCell>
                <mxCell id="300" value="InputGroup" style="swimlane;fontStyle=1;align=center;verticalAlign=top;childLayout=stackLayout;horizontal=1;startSize=26;horizontalStack=0;resizeParent=1;resizeParentMax=0;resizeLast=0;collapsible=1;marginBottom=0;shadow=0;labelBackgroundColor=none;strokeWidth=1;fillColor=#FFFFFF;gradientColor=none;fontSize=12;" parent="1" vertex="1">
                    <mxGeometry x="-2470" y="-20" width="250" height="86" as="geometry"/>
                </mxCell>
                <mxCell id="301" value="- componentList: ArrayList&lt;UIComponent&gt;" style="text;strokeColor=none;fillColor=#FFFFFF;align=left;verticalAlign=top;spacingLeft=4;spacingRight=4;overflow=hidden;rotatable=0;points=[[0,0.5],[1,0.5]];portConstraint=eastwest;" parent="300" vertex="1">
                    <mxGeometry y="26" width="250" height="26" as="geometry"/>
                </mxCell>
                <mxCell id="302" value="" style="line;strokeWidth=1;fillColor=none;align=left;verticalAlign=middle;spacingTop=-1;spacingLeft=3;spacingRight=3;rotatable=0;labelPosition=right;points=[];portConstraint=eastwest;" parent="300" vertex="1">
                    <mxGeometry y="52" width="250" height="8" as="geometry"/>
                </mxCell>
                <mxCell id="303" value="+ add(component: UIComponent)" style="text;strokeColor=none;fillColor=#FFFFFF;align=left;verticalAlign=top;spacingLeft=4;spacingRight=4;overflow=hidden;rotatable=0;points=[[0,0.5],[1,0.5]];portConstraint=eastwest;" parent="300" vertex="1">
                    <mxGeometry y="60" width="250" height="26" as="geometry"/>
                </mxCell>
                <mxCell id="312" value="Layout" style="swimlane;fontStyle=1;align=center;verticalAlign=top;childLayout=stackLayout;horizontal=1;startSize=26;horizontalStack=0;resizeParent=1;resizeParentMax=0;resizeLast=0;collapsible=1;marginBottom=0;shadow=0;labelBackgroundColor=none;strokeWidth=1;fillColor=#FFFFFF;gradientColor=none;fontSize=12;" parent="1" vertex="1">
                    <mxGeometry x="-2730" y="-20" width="250" height="190" as="geometry"/>
                </mxCell>
                <mxCell id="313" value="- componentList: ArrayList&lt;UIComponent&gt;" style="text;strokeColor=none;fillColor=#FFFFFF;align=left;verticalAlign=top;spacingLeft=4;spacingRight=4;overflow=hidden;rotatable=0;points=[[0,0.5],[1,0.5]];portConstraint=eastwest;" parent="312" vertex="1">
                    <mxGeometry y="26" width="250" height="26" as="geometry"/>
                </mxCell>
                <mxCell id="318" value="- header: ArrayList&lt;Object&gt;" style="text;strokeColor=none;fillColor=#FFFFFF;align=left;verticalAlign=top;spacingLeft=4;spacingRight=4;overflow=hidden;rotatable=0;points=[[0,0.5],[1,0.5]];portConstraint=eastwest;" parent="312" vertex="1">
                    <mxGeometry y="52" width="250" height="26" as="geometry"/>
                </mxCell>
                <mxCell id="316" value="- sidebar: ArrayList&lt;Objetc&gt;" style="text;strokeColor=none;fillColor=#FFFFFF;align=left;verticalAlign=top;spacingLeft=4;spacingRight=4;overflow=hidden;rotatable=0;points=[[0,0.5],[1,0.5]];portConstraint=eastwest;" parent="312" vertex="1">
                    <mxGeometry y="78" width="250" height="26" as="geometry"/>
                </mxCell>
                <mxCell id="317" value="- footer: ArrayList&lt;Object&gt;" style="text;strokeColor=none;fillColor=#FFFFFF;align=left;verticalAlign=top;spacingLeft=4;spacingRight=4;overflow=hidden;rotatable=0;points=[[0,0.5],[1,0.5]];portConstraint=eastwest;" parent="312" vertex="1">
                    <mxGeometry y="104" width="250" height="26" as="geometry"/>
                </mxCell>
                <mxCell id="319" value="- asidebar: ArrayList&lt;Object&gt;" style="text;strokeColor=none;fillColor=#FFFFFF;align=left;verticalAlign=top;spacingLeft=4;spacingRight=4;overflow=hidden;rotatable=0;points=[[0,0.5],[1,0.5]];portConstraint=eastwest;" parent="312" vertex="1">
                    <mxGeometry y="130" width="250" height="26" as="geometry"/>
                </mxCell>
                <mxCell id="314" value="" style="line;strokeWidth=1;fillColor=none;align=left;verticalAlign=middle;spacingTop=-1;spacingLeft=3;spacingRight=3;rotatable=0;labelPosition=right;points=[];portConstraint=eastwest;" parent="312" vertex="1">
                    <mxGeometry y="156" width="250" height="8" as="geometry"/>
                </mxCell>
                <mxCell id="315" value="+ add(component: UIComponent)" style="text;strokeColor=none;fillColor=#FFFFFF;align=left;verticalAlign=top;spacingLeft=4;spacingRight=4;overflow=hidden;rotatable=0;points=[[0,0.5],[1,0.5]];portConstraint=eastwest;" parent="312" vertex="1">
                    <mxGeometry y="164" width="250" height="26" as="geometry"/>
                </mxCell>
                <mxCell id="288" value="CardComposite" style="swimlane;fontStyle=1;align=center;verticalAlign=top;childLayout=stackLayout;horizontal=1;startSize=26;horizontalStack=0;resizeParent=1;resizeParentMax=0;resizeLast=0;collapsible=1;marginBottom=0;shadow=0;labelBackgroundColor=none;strokeWidth=1;fillColor=#FFFFFF;gradientColor=none;fontSize=12;" parent="1" vertex="1">
                    <mxGeometry x="-1937" y="-20" width="250" height="86" as="geometry"/>
                </mxCell>
                <mxCell id="289" value="- componentList: ArrayList&lt;UIComponent&gt;" style="text;strokeColor=none;fillColor=#FFFFFF;align=left;verticalAlign=top;spacingLeft=4;spacingRight=4;overflow=hidden;rotatable=0;points=[[0,0.5],[1,0.5]];portConstraint=eastwest;" parent="288" vertex="1">
                    <mxGeometry y="26" width="250" height="26" as="geometry"/>
                </mxCell>
                <mxCell id="290" value="" style="line;strokeWidth=1;fillColor=none;align=left;verticalAlign=middle;spacingTop=-1;spacingLeft=3;spacingRight=3;rotatable=0;labelPosition=right;points=[];portConstraint=eastwest;" parent="288" vertex="1">
                    <mxGeometry y="52" width="250" height="8" as="geometry"/>
                </mxCell>
                <mxCell id="291" value="+ add(component: UIComponent)" style="text;strokeColor=none;fillColor=#FFFFFF;align=left;verticalAlign=top;spacingLeft=4;spacingRight=4;overflow=hidden;rotatable=0;points=[[0,0.5],[1,0.5]];portConstraint=eastwest;" parent="288" vertex="1">
                    <mxGeometry y="60" width="250" height="26" as="geometry"/>
                </mxCell>
                <mxCell id="280" value="Input" style="swimlane;fontStyle=1;align=center;verticalAlign=top;childLayout=stackLayout;horizontal=1;startSize=26;horizontalStack=0;resizeParent=1;resizeParentMax=0;resizeLast=0;collapsible=1;marginBottom=0;shadow=0;labelBackgroundColor=none;strokeWidth=1;fillColor=#FFFFFF;gradientColor=none;fontSize=12;" parent="1" vertex="1">
                    <mxGeometry x="-1370" y="-20" width="140" height="52" as="geometry"/>
                </mxCell>
                <mxCell id="328" value="- typeInfo: String" style="text;strokeColor=none;fillColor=#FFFFFF;align=left;verticalAlign=top;spacingLeft=4;spacingRight=4;overflow=hidden;rotatable=0;points=[[0,0.5],[1,0.5]];portConstraint=eastwest;" parent="280" vertex="1">
                    <mxGeometry y="26" width="140" height="26" as="geometry"/>
                </mxCell>
                <mxCell id="322" value="Dropdown" style="swimlane;fontStyle=1;align=center;verticalAlign=top;childLayout=stackLayout;horizontal=1;startSize=26;horizontalStack=0;resizeParent=1;resizeParentMax=0;resizeLast=0;collapsible=1;marginBottom=0;shadow=0;labelBackgroundColor=none;strokeWidth=1;fillColor=#FFFFFF;gradientColor=none;fontSize=12;" parent="1" vertex="1">
                    <mxGeometry x="-1210" y="-20" width="170" height="52" as="geometry"/>
                </mxCell>
                <mxCell id="329" value="- items: ArrayList&lt;String&gt;" style="text;strokeColor=none;fillColor=#FFFFFF;align=left;verticalAlign=top;spacingLeft=4;spacingRight=4;overflow=hidden;rotatable=0;points=[[0,0.5],[1,0.5]];portConstraint=eastwest;" parent="322" vertex="1">
                    <mxGeometry y="26" width="170" height="26" as="geometry"/>
                </mxCell>
                <mxCell id="324" value="Table" style="swimlane;fontStyle=1;align=center;verticalAlign=top;childLayout=stackLayout;horizontal=1;startSize=26;horizontalStack=0;resizeParent=1;resizeParentMax=0;resizeLast=0;collapsible=1;marginBottom=0;shadow=0;labelBackgroundColor=none;strokeWidth=1;fillColor=#FFFFFF;gradientColor=none;fontSize=12;" parent="1" vertex="1">
                    <mxGeometry x="-1030" y="-20" width="170" height="78" as="geometry"/>
                </mxCell>
                <mxCell id="330" value="- headers: ArrayList&lt;String&gt;" style="text;strokeColor=none;fillColor=#FFFFFF;align=left;verticalAlign=top;spacingLeft=4;spacingRight=4;overflow=hidden;rotatable=0;points=[[0,0.5],[1,0.5]];portConstraint=eastwest;" parent="324" vertex="1">
                    <mxGeometry y="26" width="170" height="26" as="geometry"/>
                </mxCell>
                <mxCell id="331" value="- irows: ArrayList&lt;String&gt;" style="text;strokeColor=none;fillColor=#FFFFFF;align=left;verticalAlign=top;spacingLeft=4;spacingRight=4;overflow=hidden;rotatable=0;points=[[0,0.5],[1,0.5]];portConstraint=eastwest;" parent="324" vertex="1">
                    <mxGeometry y="52" width="170" height="26" as="geometry"/>
                </mxCell>
                <mxCell id="335" value="Button" style="swimlane;fontStyle=1;align=center;verticalAlign=top;childLayout=stackLayout;horizontal=1;startSize=26;horizontalStack=0;resizeParent=1;resizeParentMax=0;resizeLast=0;collapsible=1;marginBottom=0;shadow=0;labelBackgroundColor=none;strokeWidth=1;fillColor=#FFFFFF;gradientColor=none;fontSize=12;" parent="1" vertex="1">
                    <mxGeometry x="-850" y="-20" width="90" height="52" as="geometry"/>
                </mxCell>
                <mxCell id="336" value="- href: String" style="text;strokeColor=none;fillColor=#FFFFFF;align=left;verticalAlign=top;spacingLeft=4;spacingRight=4;overflow=hidden;rotatable=0;points=[[0,0.5],[1,0.5]];portConstraint=eastwest;" parent="335" vertex="1">
                    <mxGeometry y="26" width="90" height="26" as="geometry"/>
                </mxCell>
                <mxCell id="332" value="Text" style="swimlane;fontStyle=1;align=center;verticalAlign=top;childLayout=stackLayout;horizontal=1;startSize=26;horizontalStack=0;resizeParent=1;resizeParentMax=0;resizeLast=0;collapsible=1;marginBottom=0;shadow=0;labelBackgroundColor=none;strokeWidth=1;fillColor=#FFFFFF;gradientColor=none;fontSize=12;" parent="1" vertex="1">
                    <mxGeometry x="-740" y="-20" width="90" height="52" as="geometry"/>
                </mxCell>
                <mxCell id="334" value="- href: String" style="text;strokeColor=none;fillColor=#FFFFFF;align=left;verticalAlign=top;spacingLeft=4;spacingRight=4;overflow=hidden;rotatable=0;points=[[0,0.5],[1,0.5]];portConstraint=eastwest;" parent="332" vertex="1">
                    <mxGeometry y="26" width="90" height="26" as="geometry"/>
                </mxCell>
                <mxCell id="343" value="" style="endArrow=open;endFill=1;endSize=12;html=1;fontSize=12;fontColor=none;exitX=1;exitY=0.5;exitDx=0;exitDy=0;entryX=0.75;entryY=0;entryDx=0;entryDy=0;fillColor=#e51400;strokeColor=#B20000;strokeWidth=5;" parent="1" source="61" target="235" edge="1">
                    <mxGeometry width="160" relative="1" as="geometry">
                        <mxPoint x="230" y="-890" as="sourcePoint"/>
                        <mxPoint x="390" y="-890" as="targetPoint"/>
                        <Array as="points">
                            <mxPoint x="920" y="-369"/>
                            <mxPoint x="920" y="-800"/>
                            <mxPoint x="-1200" y="-800"/>
                        </Array>
                    </mxGeometry>
                </mxCell>
                <mxCell id="97" value="ICreateComponetStrategy" style="swimlane;fontStyle=1;align=center;verticalAlign=top;childLayout=stackLayout;horizontal=1;startSize=30;horizontalStack=0;resizeParent=1;resizeParentMax=0;resizeLast=0;collapsible=1;marginBottom=0;fontSize=12;" parent="1" vertex="1">
                    <mxGeometry x="-760" y="250" width="470" height="168" as="geometry"/>
                </mxCell>
                <mxCell id="114" value="- strategyName: String" style="text;strokeColor=none;fillColor=#ffffff;align=left;verticalAlign=top;spacingLeft=4;spacingRight=4;overflow=hidden;rotatable=0;points=[[0,0.5],[1,0.5]];portConstraint=eastwest;" parent="97" vertex="1">
                    <mxGeometry y="30" width="470" height="26" as="geometry"/>
                </mxCell>
                <mxCell id="115" value="- basex: Number" style="text;strokeColor=none;fillColor=#ffffff;align=left;verticalAlign=top;spacingLeft=4;spacingRight=4;overflow=hidden;rotatable=0;points=[[0,0.5],[1,0.5]];portConstraint=eastwest;" parent="97" vertex="1">
                    <mxGeometry y="56" width="470" height="26" as="geometry"/>
                </mxCell>
                <mxCell id="116" value="- basey: Number" style="text;strokeColor=none;fillColor=#ffffff;align=left;verticalAlign=top;spacingLeft=4;spacingRight=4;overflow=hidden;rotatable=0;points=[[0,0.5],[1,0.5]];portConstraint=eastwest;" parent="97" vertex="1">
                    <mxGeometry y="82" width="470" height="26" as="geometry"/>
                </mxCell>
                <mxCell id="99" value="" style="fillColor=#ffffff;line;strokeWidth=1;align=left;verticalAlign=middle;spacingTop=-1;spacingLeft=3;spacingRight=3;rotatable=0;labelPosition=right;points=[];portConstraint=eastwest;labelBackgroundColor=#FFFFFF;labelBorderColor=none;" parent="97" vertex="1">
                    <mxGeometry y="108" width="470" height="8" as="geometry"/>
                </mxCell>
                <mxCell id="100" value="+ createComponent(graphStorage: GraphStorage, component: UIComponent, parent)" style="text;strokeColor=none;fillColor=#ffffff;align=left;verticalAlign=top;spacingLeft=4;spacingRight=4;overflow=hidden;rotatable=0;points=[[0,0.5],[1,0.5]];portConstraint=eastwest;" parent="97" vertex="1">
                    <mxGeometry y="116" width="470" height="26" as="geometry"/>
                </mxCell>
                <mxCell id="101" value="+ createDataBinding(part: String, index?)" style="text;strokeColor=none;fillColor=#ffffff;align=left;verticalAlign=top;spacingLeft=4;spacingRight=4;overflow=hidden;rotatable=0;points=[[0,0.5],[1,0.5]];portConstraint=eastwest;" parent="97" vertex="1">
                    <mxGeometry y="142" width="470" height="26" as="geometry"/>
                </mxCell>
                <mxCell id="120" value="ButtonStrategy" style="swimlane;fontStyle=1;align=center;verticalAlign=top;childLayout=stackLayout;horizontal=1;startSize=26;horizontalStack=0;resizeParent=1;resizeParentMax=0;resizeLast=0;collapsible=1;marginBottom=0;fontSize=12;labelBackgroundColor=#FFFFFF;" parent="1" vertex="1">
                    <mxGeometry x="-830" y="510" width="330" height="104" as="geometry"/>
                </mxCell>
                <mxCell id="123" value="+ createButtonVertex(graphStorage, component, parent)" style="text;strokeColor=none;fillColor=#ffffff;align=left;verticalAlign=top;spacingLeft=4;spacingRight=4;overflow=hidden;rotatable=0;points=[[0,0.5],[1,0.5]];portConstraint=eastwest;labelBackgroundColor=#FFFFFF;" parent="120" vertex="1">
                    <mxGeometry y="26" width="330" height="26" as="geometry"/>
                </mxCell>
                <mxCell id="125" value="+ createComponent(graphStorage, component, parent)" style="text;strokeColor=none;fillColor=#ffffff;align=left;verticalAlign=top;spacingLeft=4;spacingRight=4;overflow=hidden;rotatable=0;points=[[0,0.5],[1,0.5]];portConstraint=eastwest;labelBackgroundColor=#FFFFFF;" parent="120" vertex="1">
                    <mxGeometry y="52" width="330" height="26" as="geometry"/>
                </mxCell>
                <mxCell id="126" value="+ createDataBinding(part: String, index: Number)" style="text;strokeColor=none;fillColor=#ffffff;align=left;verticalAlign=top;spacingLeft=4;spacingRight=4;overflow=hidden;rotatable=0;points=[[0,0.5],[1,0.5]];portConstraint=eastwest;labelBackgroundColor=#FFFFFF;" parent="120" vertex="1">
                    <mxGeometry y="78" width="330" height="26" as="geometry"/>
                </mxCell>
                <mxCell id="132" value="CardStrategy" style="swimlane;fontStyle=1;align=center;verticalAlign=top;childLayout=stackLayout;horizontal=1;startSize=26;horizontalStack=0;resizeParent=1;resizeParentMax=0;resizeLast=0;collapsible=1;marginBottom=0;fontSize=12;labelBackgroundColor=#FFFFFF;" parent="1" vertex="1">
                    <mxGeometry x="-470" y="510" width="330" height="130" as="geometry"/>
                </mxCell>
                <mxCell id="134" value="+ createCardBoxVertex(graphStorage, component, parent)" style="text;strokeColor=none;fillColor=#ffffff;align=left;verticalAlign=top;spacingLeft=4;spacingRight=4;overflow=hidden;rotatable=0;points=[[0,0.5],[1,0.5]];portConstraint=eastwest;labelBackgroundColor=#FFFFFF;" parent="132" vertex="1">
                    <mxGeometry y="26" width="330" height="26" as="geometry"/>
                </mxCell>
                <mxCell id="137" value="+ createHeaderVertex(graphStorage, component, parent)" style="text;strokeColor=none;fillColor=#ffffff;align=left;verticalAlign=top;spacingLeft=4;spacingRight=4;overflow=hidden;rotatable=0;points=[[0,0.5],[1,0.5]];portConstraint=eastwest;labelBackgroundColor=#FFFFFF;" parent="132" vertex="1">
                    <mxGeometry y="52" width="330" height="26" as="geometry"/>
                </mxCell>
                <mxCell id="135" value="+ createComponent(graphStorage, component, parent)" style="text;strokeColor=none;fillColor=#ffffff;align=left;verticalAlign=top;spacingLeft=4;spacingRight=4;overflow=hidden;rotatable=0;points=[[0,0.5],[1,0.5]];portConstraint=eastwest;labelBackgroundColor=#FFFFFF;" parent="132" vertex="1">
                    <mxGeometry y="78" width="330" height="26" as="geometry"/>
                </mxCell>
                <mxCell id="136" value="+ createDataBinding(part: String, index: Number)" style="text;strokeColor=none;fillColor=#ffffff;align=left;verticalAlign=top;spacingLeft=4;spacingRight=4;overflow=hidden;rotatable=0;points=[[0,0.5],[1,0.5]];portConstraint=eastwest;labelBackgroundColor=#FFFFFF;" parent="132" vertex="1">
                    <mxGeometry y="104" width="330" height="26" as="geometry"/>
                </mxCell>
                <mxCell id="103" value="BreadcrumbStrategy" style="swimlane;fontStyle=1;align=center;verticalAlign=top;childLayout=stackLayout;horizontal=1;startSize=26;horizontalStack=0;resizeParent=1;resizeParentMax=0;resizeLast=0;collapsible=1;marginBottom=0;fontSize=12;labelBackgroundColor=#FFFFFF;" parent="1" vertex="1">
                    <mxGeometry x="-1300" y="510" width="450" height="130" as="geometry"/>
                </mxCell>
                <mxCell id="106" value="+ createBreadcrumbBoxVertex(graphStorage, component, parent)" style="text;strokeColor=none;fillColor=#ffffff;align=left;verticalAlign=top;spacingLeft=4;spacingRight=4;overflow=hidden;rotatable=0;points=[[0,0.5],[1,0.5]];portConstraint=eastwest;labelBackgroundColor=#FFFFFF;" parent="103" vertex="1">
                    <mxGeometry y="26" width="450" height="26" as="geometry"/>
                </mxCell>
                <mxCell id="110" value="+ createBreadcrumbIndicatorVertex(graphStorage, component, parent, x, y, index)" style="text;strokeColor=none;fillColor=#ffffff;align=left;verticalAlign=top;spacingLeft=4;spacingRight=4;overflow=hidden;rotatable=0;points=[[0,0.5],[1,0.5]];portConstraint=eastwest;labelBackgroundColor=#FFFFFF;" parent="103" vertex="1">
                    <mxGeometry y="52" width="450" height="26" as="geometry"/>
                </mxCell>
                <mxCell id="111" value="+ createComponent(graphStorage, component, parent)" style="text;strokeColor=none;fillColor=#ffffff;align=left;verticalAlign=top;spacingLeft=4;spacingRight=4;overflow=hidden;rotatable=0;points=[[0,0.5],[1,0.5]];portConstraint=eastwest;labelBackgroundColor=#FFFFFF;" parent="103" vertex="1">
                    <mxGeometry y="78" width="450" height="26" as="geometry"/>
                </mxCell>
                <mxCell id="112" value="+ createDataBinding(part: String, index: Number)" style="text;strokeColor=none;fillColor=#ffffff;align=left;verticalAlign=top;spacingLeft=4;spacingRight=4;overflow=hidden;rotatable=0;points=[[0,0.5],[1,0.5]];portConstraint=eastwest;labelBackgroundColor=#FFFFFF;" parent="103" vertex="1">
                    <mxGeometry y="104" width="450" height="26" as="geometry"/>
                </mxCell>
                <mxCell id="144" value="DropdownStrategy" style="swimlane;fontStyle=1;align=center;verticalAlign=top;childLayout=stackLayout;horizontal=1;startSize=26;horizontalStack=0;resizeParent=1;resizeParentMax=0;resizeLast=0;collapsible=1;marginBottom=0;fontSize=12;labelBackgroundColor=#FFFFFF;" parent="1" vertex="1">
                    <mxGeometry x="-1660" y="510" width="340" height="130" as="geometry"/>
                </mxCell>
                <mxCell id="146" value="+ createCardBoxVertex(graphStorage, component, parent)" style="text;strokeColor=none;fillColor=#ffffff;align=left;verticalAlign=top;spacingLeft=4;spacingRight=4;overflow=hidden;rotatable=0;points=[[0,0.5],[1,0.5]];portConstraint=eastwest;labelBackgroundColor=#FFFFFF;" parent="144" vertex="1">
                    <mxGeometry y="26" width="340" height="26" as="geometry"/>
                </mxCell>
                <mxCell id="147" value="+ createHeaderVertex(graphStorage, component, parent)" style="text;strokeColor=none;fillColor=#ffffff;align=left;verticalAlign=top;spacingLeft=4;spacingRight=4;overflow=hidden;rotatable=0;points=[[0,0.5],[1,0.5]];portConstraint=eastwest;labelBackgroundColor=#FFFFFF;" parent="144" vertex="1">
                    <mxGeometry y="52" width="340" height="26" as="geometry"/>
                </mxCell>
                <mxCell id="148" value="+ createComponent(graphStorage, component, parent)" style="text;strokeColor=none;fillColor=#ffffff;align=left;verticalAlign=top;spacingLeft=4;spacingRight=4;overflow=hidden;rotatable=0;points=[[0,0.5],[1,0.5]];portConstraint=eastwest;labelBackgroundColor=#FFFFFF;" parent="144" vertex="1">
                    <mxGeometry y="78" width="340" height="26" as="geometry"/>
                </mxCell>
                <mxCell id="149" value="+ createDataBinding(part: String, index: Number)" style="text;strokeColor=none;fillColor=#ffffff;align=left;verticalAlign=top;spacingLeft=4;spacingRight=4;overflow=hidden;rotatable=0;points=[[0,0.5],[1,0.5]];portConstraint=eastwest;labelBackgroundColor=#FFFFFF;" parent="144" vertex="1">
                    <mxGeometry y="104" width="340" height="26" as="geometry"/>
                </mxCell>
                <mxCell id="186" value="TableStrategy" style="swimlane;fontStyle=1;align=center;verticalAlign=top;childLayout=stackLayout;horizontal=1;startSize=26;horizontalStack=0;resizeParent=1;resizeParentMax=0;resizeLast=0;collapsible=1;marginBottom=0;fontSize=12;labelBackgroundColor=#FFFFFF;" parent="1" vertex="1">
                    <mxGeometry x="-2050" y="510" width="370" height="218" as="geometry"/>
                </mxCell>
                <mxCell id="203" value="- gridWidth: Number" style="text;strokeColor=none;fillColor=#ffffff;align=left;verticalAlign=top;spacingLeft=4;spacingRight=4;overflow=hidden;rotatable=0;points=[[0,0.5],[1,0.5]];portConstraint=eastwest;labelBackgroundColor=#FFFFFF;" parent="186" vertex="1">
                    <mxGeometry y="26" width="370" height="26" as="geometry"/>
                </mxCell>
                <mxCell id="204" value="- gridHeight: Number" style="text;strokeColor=none;fillColor=#ffffff;align=left;verticalAlign=top;spacingLeft=4;spacingRight=4;overflow=hidden;rotatable=0;points=[[0,0.5],[1,0.5]];portConstraint=eastwest;labelBackgroundColor=#FFFFFF;" parent="186" vertex="1">
                    <mxGeometry y="52" width="370" height="26" as="geometry"/>
                </mxCell>
                <mxCell id="187" value="" style="line;strokeWidth=1;fillColor=none;align=left;verticalAlign=middle;spacingTop=-1;spacingLeft=3;spacingRight=3;rotatable=0;labelPosition=right;points=[];portConstraint=eastwest;labelBackgroundColor=#FFFFFF;" parent="186" vertex="1">
                    <mxGeometry y="78" width="370" height="10" as="geometry"/>
                </mxCell>
                <mxCell id="189" value="+ createTableBoxVertex(graphStorage, component, parent)" style="text;strokeColor=none;fillColor=#ffffff;align=left;verticalAlign=top;spacingLeft=4;spacingRight=4;overflow=hidden;rotatable=0;points=[[0,0.5],[1,0.5]];portConstraint=eastwest;labelBackgroundColor=#FFFFFF;" parent="186" vertex="1">
                    <mxGeometry y="88" width="370" height="26" as="geometry"/>
                </mxCell>
                <mxCell id="190" value="+ createTableHeaderVertex(graphStorage, component, parent)" style="text;strokeColor=none;fillColor=#ffffff;align=left;verticalAlign=top;spacingLeft=4;spacingRight=4;overflow=hidden;rotatable=0;points=[[0,0.5],[1,0.5]];portConstraint=eastwest;labelBackgroundColor=#FFFFFF;" parent="186" vertex="1">
                    <mxGeometry y="114" width="370" height="26" as="geometry"/>
                </mxCell>
                <mxCell id="191" value="+ createTableDataVertex(graphStorage, component, parent)" style="text;strokeColor=none;fillColor=#ffffff;align=left;verticalAlign=top;spacingLeft=4;spacingRight=4;overflow=hidden;rotatable=0;points=[[0,0.5],[1,0.5]];portConstraint=eastwest;labelBackgroundColor=#FFFFFF;" parent="186" vertex="1">
                    <mxGeometry y="140" width="370" height="26" as="geometry"/>
                </mxCell>
                <mxCell id="205" value="+ createComponent(graphStorage, component, parent)" style="text;strokeColor=none;fillColor=#ffffff;align=left;verticalAlign=top;spacingLeft=4;spacingRight=4;overflow=hidden;rotatable=0;points=[[0,0.5],[1,0.5]];portConstraint=eastwest;labelBackgroundColor=#FFFFFF;" parent="186" vertex="1">
                    <mxGeometry y="166" width="370" height="26" as="geometry"/>
                </mxCell>
                <mxCell id="206" value="+ createDataBinding(part: String, index: Number)" style="text;strokeColor=none;fillColor=#ffffff;align=left;verticalAlign=top;spacingLeft=4;spacingRight=4;overflow=hidden;rotatable=0;points=[[0,0.5],[1,0.5]];portConstraint=eastwest;labelBackgroundColor=#FFFFFF;" parent="186" vertex="1">
                    <mxGeometry y="192" width="370" height="26" as="geometry"/>
                </mxCell>
                <mxCell id="180" value="LayoutStrategy" style="swimlane;fontStyle=1;align=center;verticalAlign=top;childLayout=stackLayout;horizontal=1;startSize=26;horizontalStack=0;resizeParent=1;resizeParentMax=0;resizeLast=0;collapsible=1;marginBottom=0;fontSize=12;labelBackgroundColor=#FFFFFF;" parent="1" vertex="1">
                    <mxGeometry x="-2440" y="510" width="370" height="234" as="geometry"/>
                </mxCell>
                <mxCell id="184" value="+ createLayoutBoxVertex(graphStorage, component, parent)" style="text;strokeColor=none;fillColor=#ffffff;align=left;verticalAlign=top;spacingLeft=4;spacingRight=4;overflow=hidden;rotatable=0;points=[[0,0.5],[1,0.5]];portConstraint=eastwest;labelBackgroundColor=#FFFFFF;" parent="180" vertex="1">
                    <mxGeometry y="26" width="370" height="26" as="geometry"/>
                </mxCell>
                <mxCell id="207" value="+ createLayoutHeaderVertex(graphStorage, component, parent)" style="text;strokeColor=none;fillColor=#ffffff;align=left;verticalAlign=top;spacingLeft=4;spacingRight=4;overflow=hidden;rotatable=0;points=[[0,0.5],[1,0.5]];portConstraint=eastwest;labelBackgroundColor=#FFFFFF;" parent="180" vertex="1">
                    <mxGeometry y="52" width="370" height="26" as="geometry"/>
                </mxCell>
                <mxCell id="208" value="+ createLayoutFooterVertex(graphStorage, component, parent)" style="text;strokeColor=none;fillColor=#ffffff;align=left;verticalAlign=top;spacingLeft=4;spacingRight=4;overflow=hidden;rotatable=0;points=[[0,0.5],[1,0.5]];portConstraint=eastwest;labelBackgroundColor=#FFFFFF;" parent="180" vertex="1">
                    <mxGeometry y="78" width="370" height="26" as="geometry"/>
                </mxCell>
                <mxCell id="209" value="+ createLayoutSidebar(graphStorage, component, parent)" style="text;strokeColor=none;fillColor=#ffffff;align=left;verticalAlign=top;spacingLeft=4;spacingRight=4;overflow=hidden;rotatable=0;points=[[0,0.5],[1,0.5]];portConstraint=eastwest;labelBackgroundColor=#FFFFFF;" parent="180" vertex="1">
                    <mxGeometry y="104" width="370" height="26" as="geometry"/>
                </mxCell>
                <mxCell id="212" value="+ createLayoutAsidebar(graphStorage, component, parent)" style="text;strokeColor=none;fillColor=#ffffff;align=left;verticalAlign=top;spacingLeft=4;spacingRight=4;overflow=hidden;rotatable=0;points=[[0,0.5],[1,0.5]];portConstraint=eastwest;labelBackgroundColor=#FFFFFF;" parent="180" vertex="1">
                    <mxGeometry y="130" width="370" height="26" as="geometry"/>
                </mxCell>
                <mxCell id="211" value="+ createLayoutBody(graphStorage, component, parent)" style="text;strokeColor=none;fillColor=#ffffff;align=left;verticalAlign=top;spacingLeft=4;spacingRight=4;overflow=hidden;rotatable=0;points=[[0,0.5],[1,0.5]];portConstraint=eastwest;labelBackgroundColor=#FFFFFF;" parent="180" vertex="1">
                    <mxGeometry y="156" width="370" height="26" as="geometry"/>
                </mxCell>
                <mxCell id="210" value="+ createComponent(graphStorage, component, parent)" style="text;strokeColor=none;fillColor=#ffffff;align=left;verticalAlign=top;spacingLeft=4;spacingRight=4;overflow=hidden;rotatable=0;points=[[0,0.5],[1,0.5]];portConstraint=eastwest;labelBackgroundColor=#FFFFFF;" parent="180" vertex="1">
                    <mxGeometry y="182" width="370" height="26" as="geometry"/>
                </mxCell>
                <mxCell id="185" value="+ createDataBinding(part: String, index: Number)" style="text;strokeColor=none;fillColor=#ffffff;align=left;verticalAlign=top;spacingLeft=4;spacingRight=4;overflow=hidden;rotatable=0;points=[[0,0.5],[1,0.5]];portConstraint=eastwest;labelBackgroundColor=#FFFFFF;" parent="180" vertex="1">
                    <mxGeometry y="208" width="370" height="26" as="geometry"/>
                </mxCell>
                <mxCell id="157" value="FormStrategy" style="swimlane;fontStyle=1;align=center;verticalAlign=top;childLayout=stackLayout;horizontal=1;startSize=26;horizontalStack=0;resizeParent=1;resizeParentMax=0;resizeLast=0;collapsible=1;marginBottom=0;fontSize=12;labelBackgroundColor=#FFFFFF;" parent="1" vertex="1">
                    <mxGeometry x="-120" y="510" width="340" height="130" as="geometry"/>
                </mxCell>
                <mxCell id="159" value="+ createCardBoxVertex(graphStorage, component, parent)" style="text;strokeColor=none;fillColor=#ffffff;align=left;verticalAlign=top;spacingLeft=4;spacingRight=4;overflow=hidden;rotatable=0;points=[[0,0.5],[1,0.5]];portConstraint=eastwest;labelBackgroundColor=#FFFFFF;" parent="157" vertex="1">
                    <mxGeometry y="26" width="340" height="26" as="geometry"/>
                </mxCell>
                <mxCell id="160" value="+ createHeaderVertex(graphStorage, component, parent)" style="text;strokeColor=none;fillColor=#ffffff;align=left;verticalAlign=top;spacingLeft=4;spacingRight=4;overflow=hidden;rotatable=0;points=[[0,0.5],[1,0.5]];portConstraint=eastwest;labelBackgroundColor=#FFFFFF;" parent="157" vertex="1">
                    <mxGeometry y="52" width="340" height="26" as="geometry"/>
                </mxCell>
                <mxCell id="161" value="+ createComponent(graphStorage, component, parent)" style="text;strokeColor=none;fillColor=#ffffff;align=left;verticalAlign=top;spacingLeft=4;spacingRight=4;overflow=hidden;rotatable=0;points=[[0,0.5],[1,0.5]];portConstraint=eastwest;labelBackgroundColor=#FFFFFF;" parent="157" vertex="1">
                    <mxGeometry y="78" width="340" height="26" as="geometry"/>
                </mxCell>
                <mxCell id="162" value="+ createDataBinding(part: String, index: Number)" style="text;strokeColor=none;fillColor=#ffffff;align=left;verticalAlign=top;spacingLeft=4;spacingRight=4;overflow=hidden;rotatable=0;points=[[0,0.5],[1,0.5]];portConstraint=eastwest;labelBackgroundColor=#FFFFFF;" parent="157" vertex="1">
                    <mxGeometry y="104" width="340" height="26" as="geometry"/>
                </mxCell>
                <mxCell id="151" value="IconStrategy" style="swimlane;fontStyle=1;align=center;verticalAlign=top;childLayout=stackLayout;horizontal=1;startSize=26;horizontalStack=0;resizeParent=1;resizeParentMax=0;resizeLast=0;collapsible=1;marginBottom=0;fontSize=12;labelBackgroundColor=#FFFFFF;" parent="1" vertex="1">
                    <mxGeometry x="240" y="510" width="310" height="78" as="geometry"/>
                </mxCell>
                <mxCell id="155" value="+ createComponent(graphStorage, component, parent)" style="text;strokeColor=none;fillColor=#ffffff;align=left;verticalAlign=top;spacingLeft=4;spacingRight=4;overflow=hidden;rotatable=0;points=[[0,0.5],[1,0.5]];portConstraint=eastwest;labelBackgroundColor=#FFFFFF;" parent="151" vertex="1">
                    <mxGeometry y="26" width="310" height="26" as="geometry"/>
                </mxCell>
                <mxCell id="156" value="+ createDataBinding(part: String, index: Number)" style="text;strokeColor=none;fillColor=#ffffff;align=left;verticalAlign=top;spacingLeft=4;spacingRight=4;overflow=hidden;rotatable=0;points=[[0,0.5],[1,0.5]];portConstraint=eastwest;labelBackgroundColor=#FFFFFF;" parent="151" vertex="1">
                    <mxGeometry y="52" width="310" height="26" as="geometry"/>
                </mxCell>
                <mxCell id="174" value="InputStrategy" style="swimlane;fontStyle=1;align=center;verticalAlign=top;childLayout=stackLayout;horizontal=1;startSize=26;horizontalStack=0;resizeParent=1;resizeParentMax=0;resizeLast=0;collapsible=1;marginBottom=0;fontSize=12;labelBackgroundColor=#FFFFFF;" parent="1" vertex="1">
                    <mxGeometry x="570" y="510" width="310" height="78" as="geometry"/>
                </mxCell>
                <mxCell id="178" value="+ createComponent(graphStorage, component, parent)" style="text;strokeColor=none;fillColor=#ffffff;align=left;verticalAlign=top;spacingLeft=4;spacingRight=4;overflow=hidden;rotatable=0;points=[[0,0.5],[1,0.5]];portConstraint=eastwest;labelBackgroundColor=#FFFFFF;" parent="174" vertex="1">
                    <mxGeometry y="26" width="310" height="26" as="geometry"/>
                </mxCell>
                <mxCell id="179" value="+ createDataBinding(part: String, index: Number)" style="text;strokeColor=none;fillColor=#ffffff;align=left;verticalAlign=top;spacingLeft=4;spacingRight=4;overflow=hidden;rotatable=0;points=[[0,0.5],[1,0.5]];portConstraint=eastwest;labelBackgroundColor=#FFFFFF;" parent="174" vertex="1">
                    <mxGeometry y="52" width="310" height="26" as="geometry"/>
                </mxCell>
                <mxCell id="168" value="InputGroupStrategy" style="swimlane;fontStyle=1;align=center;verticalAlign=top;childLayout=stackLayout;horizontal=1;startSize=26;horizontalStack=0;resizeParent=1;resizeParentMax=0;resizeLast=0;collapsible=1;marginBottom=0;fontSize=12;labelBackgroundColor=#FFFFFF;" parent="1" vertex="1">
                    <mxGeometry x="890" y="510" width="320" height="78" as="geometry"/>
                </mxCell>
                <mxCell id="172" value="+ createComponent(graphStorage, component, parent)" style="text;strokeColor=none;fillColor=#ffffff;align=left;verticalAlign=top;spacingLeft=4;spacingRight=4;overflow=hidden;rotatable=0;points=[[0,0.5],[1,0.5]];portConstraint=eastwest;labelBackgroundColor=#FFFFFF;" parent="168" vertex="1">
                    <mxGeometry y="26" width="320" height="26" as="geometry"/>
                </mxCell>
                <mxCell id="173" value="+ createDataBinding(part: String, index: Number)" style="text;strokeColor=none;fillColor=#ffffff;align=left;verticalAlign=top;spacingLeft=4;spacingRight=4;overflow=hidden;rotatable=0;points=[[0,0.5],[1,0.5]];portConstraint=eastwest;labelBackgroundColor=#FFFFFF;" parent="168" vertex="1">
                    <mxGeometry y="52" width="320" height="26" as="geometry"/>
                </mxCell>
                <mxCell id="192" value="TextStrategy" style="swimlane;fontStyle=1;align=center;verticalAlign=top;childLayout=stackLayout;horizontal=1;startSize=26;horizontalStack=0;resizeParent=1;resizeParentMax=0;resizeLast=0;collapsible=1;marginBottom=0;fontSize=12;labelBackgroundColor=#FFFFFF;" parent="1" vertex="1">
                    <mxGeometry x="1220" y="510" width="310" height="104" as="geometry"/>
                </mxCell>
                <mxCell id="194" value="+ createTextVertex(graphStorage, component, parent)" style="text;strokeColor=none;fillColor=#ffffff;align=left;verticalAlign=top;spacingLeft=4;spacingRight=4;overflow=hidden;rotatable=0;points=[[0,0.5],[1,0.5]];portConstraint=eastwest;labelBackgroundColor=#FFFFFF;" parent="192" vertex="1">
                    <mxGeometry y="26" width="310" height="26" as="geometry"/>
                </mxCell>
                <mxCell id="196" value="+ createComponent(graphStorage, component, parent)" style="text;strokeColor=none;fillColor=#ffffff;align=left;verticalAlign=top;spacingLeft=4;spacingRight=4;overflow=hidden;rotatable=0;points=[[0,0.5],[1,0.5]];portConstraint=eastwest;labelBackgroundColor=#FFFFFF;" parent="192" vertex="1">
                    <mxGeometry y="52" width="310" height="26" as="geometry"/>
                </mxCell>
                <mxCell id="197" value="+ createDataBinding(part: String, index: Number)" style="text;strokeColor=none;fillColor=#ffffff;align=left;verticalAlign=top;spacingLeft=4;spacingRight=4;overflow=hidden;rotatable=0;points=[[0,0.5],[1,0.5]];portConstraint=eastwest;labelBackgroundColor=#FFFFFF;" parent="192" vertex="1">
                    <mxGeometry y="78" width="310" height="26" as="geometry"/>
                </mxCell>
                <mxCell id="344" value="" style="shape=folder;fontStyle=1;spacingTop=10;tabWidth=40;tabHeight=14;tabPosition=left;html=1;fillColor=#f8cecc;strokeColor=#b85450;" parent="1" vertex="1">
                    <mxGeometry x="-1260" y="-1500" width="1860" height="630" as="geometry"/>
                </mxCell>
                <mxCell id="345" value="Services" style="text;align=center;fontStyle=1;verticalAlign=middle;spacingLeft=3;spacingRight=3;strokeColor=none;rotatable=0;points=[[0,0.5],[1,0.5]];portConstraint=eastwest;fontSize=40;" parent="1" vertex="1">
                    <mxGeometry x="-1280" y="-1470" width="340" height="26" as="geometry"/>
                </mxCell>
                <mxCell id="235" value="UIComponent" style="swimlane;fontStyle=1;align=center;verticalAlign=top;childLayout=stackLayout;horizontal=1;startSize=26;horizontalStack=0;resizeParent=1;resizeParentMax=0;resizeLast=0;collapsible=1;marginBottom=0;shadow=0;labelBackgroundColor=#FFFFFF;strokeWidth=1;fillColor=#FFFFFF;gradientColor=none;fontSize=12;" parent="1" vertex="1">
                    <mxGeometry x="-1440" y="-570" width="320" height="369" as="geometry"/>
                </mxCell>
                <mxCell id="236" value="- x: String" style="text;strokeColor=none;fillColor=#ffffff;align=left;verticalAlign=top;spacingLeft=4;spacingRight=4;overflow=hidden;rotatable=0;points=[[0,0.5],[1,0.5]];portConstraint=eastwest;" parent="235" vertex="1">
                    <mxGeometry y="26" width="320" height="26" as="geometry"/>
                </mxCell>
                <mxCell id="242" value="- y: String" style="text;strokeColor=none;fillColor=#ffffff;align=left;verticalAlign=top;spacingLeft=4;spacingRight=4;overflow=hidden;rotatable=0;points=[[0,0.5],[1,0.5]];portConstraint=eastwest;" parent="235" vertex="1">
                    <mxGeometry y="52" width="320" height="26" as="geometry"/>
                </mxCell>
                <mxCell id="240" value="- width: String" style="text;strokeColor=none;fillColor=#ffffff;align=left;verticalAlign=top;spacingLeft=4;spacingRight=4;overflow=hidden;rotatable=0;points=[[0,0.5],[1,0.5]];portConstraint=eastwest;" parent="235" vertex="1">
                    <mxGeometry y="78" width="320" height="26" as="geometry"/>
                </mxCell>
                <mxCell id="239" value="- height: String" style="text;strokeColor=none;fillColor=#ffffff;align=left;verticalAlign=top;spacingLeft=4;spacingRight=4;overflow=hidden;rotatable=0;points=[[0,0.5],[1,0.5]];portConstraint=eastwest;" parent="235" vertex="1">
                    <mxGeometry y="104" width="320" height="26" as="geometry"/>
                </mxCell>
                <mxCell id="241" value="- id: String" style="text;strokeColor=none;fillColor=#ffffff;align=left;verticalAlign=top;spacingLeft=4;spacingRight=4;overflow=hidden;rotatable=0;points=[[0,0.5],[1,0.5]];portConstraint=eastwest;" parent="235" vertex="1">
                    <mxGeometry y="130" width="320" height="26" as="geometry"/>
                </mxCell>
                <mxCell id="249" value="- serviceComponent: ServiceComponentModel" style="text;strokeColor=#d79b00;fillColor=#ffe6cc;align=left;verticalAlign=top;spacingLeft=4;spacingRight=4;overflow=hidden;rotatable=0;points=[[0,0.5],[1,0.5]];portConstraint=eastwest;" parent="235" vertex="1">
                    <mxGeometry y="156" width="320" height="26" as="geometry"/>
                </mxCell>
                <mxCell id="245" value="- category: String" style="text;strokeColor=#d79b00;fillColor=#ffe6cc;align=left;verticalAlign=top;spacingLeft=4;spacingRight=4;overflow=hidden;rotatable=0;points=[[0,0.5],[1,0.5]];portConstraint=eastwest;" parent="235" vertex="1">
                    <mxGeometry y="182" width="320" height="25" as="geometry"/>
                </mxCell>
                <mxCell id="248" value="- name: String&#10;" style="text;strokeColor=#d79b00;fillColor=#ffe6cc;align=left;verticalAlign=top;spacingLeft=4;spacingRight=4;overflow=hidden;rotatable=0;points=[[0,0.5],[1,0.5]];portConstraint=eastwest;" parent="235" vertex="1">
                    <mxGeometry y="207" width="320" height="26" as="geometry"/>
                </mxCell>
                <mxCell id="247" value="- type: String" style="text;strokeColor=#d79b00;fillColor=#ffe6cc;align=left;verticalAlign=top;spacingLeft=4;spacingRight=4;overflow=hidden;rotatable=0;points=[[0,0.5],[1,0.5]];portConstraint=eastwest;" parent="235" vertex="1">
                    <mxGeometry y="233" width="320" height="26" as="geometry"/>
                </mxCell>
                <mxCell id="244" value="- selector: String" style="text;strokeColor=none;fillColor=#ffffff;align=left;verticalAlign=top;spacingLeft=4;spacingRight=4;overflow=hidden;rotatable=0;points=[[0,0.5],[1,0.5]];portConstraint=eastwest;" parent="235" vertex="1">
                    <mxGeometry y="259" width="320" height="26" as="geometry"/>
                </mxCell>
                <mxCell id="243" value="- style: Object" style="text;strokeColor=none;fillColor=#ffffff;align=left;verticalAlign=top;spacingLeft=4;spacingRight=4;overflow=hidden;rotatable=0;points=[[0,0.5],[1,0.5]];portConstraint=eastwest;" parent="235" vertex="1">
                    <mxGeometry y="285" width="320" height="26" as="geometry"/>
                </mxCell>
                <mxCell id="246" value="- layout: String" style="text;strokeColor=none;fillColor=#ffffff;align=left;verticalAlign=top;spacingLeft=4;spacingRight=4;overflow=hidden;rotatable=0;points=[[0,0.5],[1,0.5]];portConstraint=eastwest;" parent="235" vertex="1">
                    <mxGeometry y="311" width="320" height="24" as="geometry"/>
                </mxCell>
                <mxCell id="237" value="" style="line;strokeWidth=1;fillColor=none;align=left;verticalAlign=middle;spacingTop=-1;spacingLeft=3;spacingRight=3;rotatable=0;labelPosition=right;points=[];portConstraint=eastwest;shadow=0;" parent="235" vertex="1">
                    <mxGeometry y="335" width="320" height="8" as="geometry"/>
                </mxCell>
                <mxCell id="238" value="+ method(type): type" style="text;strokeColor=none;fillColor=#ffffff;align=left;verticalAlign=top;spacingLeft=4;spacingRight=4;overflow=hidden;rotatable=0;points=[[0,0.5],[1,0.5]];portConstraint=eastwest;" parent="235" vertex="1">
                    <mxGeometry y="343" width="320" height="26" as="geometry"/>
                </mxCell>
                <mxCell id="405" value="Use" style="endArrow=open;endSize=12;dashed=1;html=1;fontSize=12;exitX=0;exitY=0.5;exitDx=0;exitDy=0;entryX=0.625;entryY=0;entryDx=0;entryDy=0;noLabel=1;fontColor=none;entryPerimeter=0;" parent="1" source="380" target="235" edge="1">
                    <mxGeometry width="160" relative="1" as="geometry">
                        <mxPoint x="-620" y="-1030" as="sourcePoint"/>
                        <mxPoint x="-460" y="-1030" as="targetPoint"/>
                        <Array as="points">
                            <mxPoint x="-1240" y="-1020"/>
                        </Array>
                    </mxGeometry>
                </mxCell>
                <mxCell id="406" value="" style="endArrow=open;endFill=1;endSize=12;html=1;fontSize=12;fontColor=none;exitX=0;exitY=0.5;exitDx=0;exitDy=0;entryX=0.25;entryY=0;entryDx=0;entryDy=0;" parent="1" source="381" target="250" edge="1">
                    <mxGeometry width="160" relative="1" as="geometry">
                        <mxPoint x="-620" y="-1030" as="sourcePoint"/>
                        <mxPoint x="-650" y="-810" as="targetPoint"/>
                        <Array as="points">
                            <mxPoint x="-1637" y="-1052"/>
                        </Array>
                    </mxGeometry>
                </mxCell>
                <mxCell id="377" value="ServiceComponentService" style="swimlane;fontStyle=1;align=center;verticalAlign=top;childLayout=stackLayout;horizontal=1;startSize=26;horizontalStack=0;resizeParent=1;resizeParentMax=0;resizeLast=0;collapsible=1;marginBottom=0;shadow=0;labelBackgroundColor=#FFFFFF;strokeWidth=1;fillColor=#ffffff;gradientColor=none;fontSize=12;" parent="1" vertex="1">
                    <mxGeometry x="-1160" y="-1169" width="410" height="242" as="geometry"/>
                </mxCell>
                <mxCell id="378" value="- httpClientService: HttpClientService" style="text;strokeColor=none;fillColor=#ffffff;align=left;verticalAlign=top;spacingLeft=4;spacingRight=4;overflow=hidden;rotatable=0;points=[[0,0.5],[1,0.5]];portConstraint=eastwest;" parent="377" vertex="1">
                    <mxGeometry y="26" width="410" height="26" as="geometry"/>
                </mxCell>
                <mxCell id="399" value="- baseUrl: String" style="text;strokeColor=none;fillColor=#ffffff;align=left;verticalAlign=top;spacingLeft=4;spacingRight=4;overflow=hidden;rotatable=0;points=[[0,0.5],[1,0.5]];portConstraint=eastwest;" parent="377" vertex="1">
                    <mxGeometry y="52" width="410" height="26" as="geometry"/>
                </mxCell>
                <mxCell id="400" value="- serviceComponents" style="text;strokeColor=none;fillColor=#ffffff;align=left;verticalAlign=top;spacingLeft=4;spacingRight=4;overflow=hidden;rotatable=0;points=[[0,0.5],[1,0.5]];portConstraint=eastwest;" parent="377" vertex="1">
                    <mxGeometry y="78" width="410" height="26" as="geometry"/>
                </mxCell>
                <mxCell id="381" value="- selectedServiceComponent: ServiceComponentModel" style="text;strokeColor=none;fillColor=#ffffff;align=left;verticalAlign=top;spacingLeft=4;spacingRight=4;overflow=hidden;rotatable=0;points=[[0,0.5],[1,0.5]];portConstraint=eastwest;" parent="377" vertex="1">
                    <mxGeometry y="104" width="410" height="26" as="geometry"/>
                </mxCell>
                <mxCell id="379" value="" style="line;strokeWidth=1;fillColor=#FFFFFF;align=left;verticalAlign=middle;spacingTop=-1;spacingLeft=3;spacingRight=3;rotatable=0;labelPosition=right;points=[];portConstraint=eastwest;" parent="377" vertex="1">
                    <mxGeometry y="130" width="410" height="8" as="geometry"/>
                </mxCell>
                <mxCell id="380" value="+ queryServices(uiComponent: UIComponent, parameterCount: Number)" style="text;strokeColor=none;fillColor=#ffffff;align=left;verticalAlign=top;spacingLeft=4;spacingRight=4;overflow=hidden;rotatable=0;points=[[0,0.5],[1,0.5]];portConstraint=eastwest;" parent="377" vertex="1">
                    <mxGeometry y="138" width="410" height="26" as="geometry"/>
                </mxCell>
                <mxCell id="401" value="+ queryArgumentsByServiceID(serviceID: string)" style="text;strokeColor=none;fillColor=#ffffff;align=left;verticalAlign=top;spacingLeft=4;spacingRight=4;overflow=hidden;rotatable=0;points=[[0,0.5],[1,0.5]];portConstraint=eastwest;" parent="377" vertex="1">
                    <mxGeometry y="164" width="410" height="26" as="geometry"/>
                </mxCell>
                <mxCell id="402" value="+ queryCodeByServiceID(serviceID: string)" style="text;strokeColor=none;fillColor=#ffffff;align=left;verticalAlign=top;spacingLeft=4;spacingRight=4;overflow=hidden;rotatable=0;points=[[0,0.5],[1,0.5]];portConstraint=eastwest;" parent="377" vertex="1">
                    <mxGeometry y="190" width="410" height="26" as="geometry"/>
                </mxCell>
                <mxCell id="403" value="+ postEditedServiceComponent(code: string, className: string)" style="text;strokeColor=none;fillColor=#ffffff;align=left;verticalAlign=top;spacingLeft=4;spacingRight=4;overflow=hidden;rotatable=0;points=[[0,0.5],[1,0.5]];portConstraint=eastwest;" parent="377" vertex="1">
                    <mxGeometry y="216" width="410" height="26" as="geometry"/>
                </mxCell>
                <mxCell id="367" value="ImportService" style="swimlane;fontStyle=1;align=center;verticalAlign=top;childLayout=stackLayout;horizontal=1;startSize=26;horizontalStack=0;resizeParent=1;resizeParentMax=0;resizeLast=0;collapsible=1;marginBottom=0;shadow=0;labelBackgroundColor=#FFFFFF;strokeWidth=1;fillColor=#ffffff;gradientColor=none;fontSize=12;" parent="1" vertex="1">
                    <mxGeometry x="-720" y="-1169" width="210" height="216" as="geometry"/>
                </mxCell>
                <mxCell id="368" value="- httpClientService: HttpClientService" style="text;strokeColor=none;fillColor=#ffffff;align=left;verticalAlign=top;spacingLeft=4;spacingRight=4;overflow=hidden;rotatable=0;points=[[0,0.5],[1,0.5]];portConstraint=eastwest;" parent="367" vertex="1">
                    <mxGeometry y="26" width="210" height="26" as="geometry"/>
                </mxCell>
                <mxCell id="407" value="- files" style="text;strokeColor=none;fillColor=#ffffff;align=left;verticalAlign=top;spacingLeft=4;spacingRight=4;overflow=hidden;rotatable=0;points=[[0,0.5],[1,0.5]];portConstraint=eastwest;" parent="367" vertex="1">
                    <mxGeometry y="52" width="210" height="26" as="geometry"/>
                </mxCell>
                <mxCell id="371" value="- pagesText" style="text;strokeColor=none;fillColor=#ffffff;align=left;verticalAlign=top;spacingLeft=4;spacingRight=4;overflow=hidden;rotatable=0;points=[[0,0.5],[1,0.5]];portConstraint=eastwest;" parent="367" vertex="1">
                    <mxGeometry y="78" width="210" height="26" as="geometry"/>
                </mxCell>
                <mxCell id="410" value="- pages" style="text;strokeColor=none;fillColor=#ffffff;align=left;verticalAlign=top;spacingLeft=4;spacingRight=4;overflow=hidden;rotatable=0;points=[[0,0.5],[1,0.5]];portConstraint=eastwest;" parent="367" vertex="1">
                    <mxGeometry y="104" width="210" height="26" as="geometry"/>
                </mxCell>
                <mxCell id="369" value="" style="line;strokeWidth=1;fillColor=#FFFFFF;align=left;verticalAlign=middle;spacingTop=-1;spacingLeft=3;spacingRight=3;rotatable=0;labelPosition=right;points=[];portConstraint=eastwest;" parent="367" vertex="1">
                    <mxGeometry y="130" width="210" height="8" as="geometry"/>
                </mxCell>
                <mxCell id="370" value="+ import()" style="text;strokeColor=none;fillColor=#ffffff;align=left;verticalAlign=top;spacingLeft=4;spacingRight=4;overflow=hidden;rotatable=0;points=[[0,0.5],[1,0.5]];portConstraint=eastwest;" parent="367" vertex="1">
                    <mxGeometry y="138" width="210" height="26" as="geometry"/>
                </mxCell>
                <mxCell id="408" value="+ getPageUICDL()" style="text;strokeColor=none;fillColor=#ffffff;align=left;verticalAlign=top;spacingLeft=4;spacingRight=4;overflow=hidden;rotatable=0;points=[[0,0.5],[1,0.5]];portConstraint=eastwest;" parent="367" vertex="1">
                    <mxGeometry y="164" width="210" height="26" as="geometry"/>
                </mxCell>
                <mxCell id="409" value="+ getFiles()" style="text;strokeColor=none;fillColor=#ffffff;align=left;verticalAlign=top;spacingLeft=4;spacingRight=4;overflow=hidden;rotatable=0;points=[[0,0.5],[1,0.5]];portConstraint=eastwest;" parent="367" vertex="1">
                    <mxGeometry y="190" width="210" height="26" as="geometry"/>
                </mxCell>
                <mxCell id="372" value="ExportService" style="swimlane;fontStyle=1;align=center;verticalAlign=top;childLayout=stackLayout;horizontal=1;startSize=26;horizontalStack=0;resizeParent=1;resizeParentMax=0;resizeLast=0;collapsible=1;marginBottom=0;shadow=0;labelBackgroundColor=#FFFFFF;strokeWidth=1;fillColor=#ffffff;gradientColor=none;fontSize=12;" parent="1" vertex="1">
                    <mxGeometry x="-480" y="-1169" width="210" height="164" as="geometry"/>
                </mxCell>
                <mxCell id="373" value="- httpClientService: HttpClientService" style="text;strokeColor=none;fillColor=#ffffff;align=left;verticalAlign=top;spacingLeft=4;spacingRight=4;overflow=hidden;rotatable=0;points=[[0,0.5],[1,0.5]];portConstraint=eastwest;" parent="372" vertex="1">
                    <mxGeometry y="26" width="210" height="26" as="geometry"/>
                </mxCell>
                <mxCell id="374" value="" style="line;strokeWidth=1;fillColor=#FFFFFF;align=left;verticalAlign=middle;spacingTop=-1;spacingLeft=3;spacingRight=3;rotatable=0;labelPosition=right;points=[];portConstraint=eastwest;" parent="372" vertex="1">
                    <mxGeometry y="52" width="210" height="8" as="geometry"/>
                </mxCell>
                <mxCell id="375" value="+ postPageUICDL(PDL)" style="text;strokeColor=none;fillColor=#ffffff;align=left;verticalAlign=top;spacingLeft=4;spacingRight=4;overflow=hidden;rotatable=0;points=[[0,0.5],[1,0.5]];portConstraint=eastwest;" parent="372" vertex="1">
                    <mxGeometry y="60" width="210" height="26" as="geometry"/>
                </mxCell>
                <mxCell id="376" value="+ newProject()" style="text;strokeColor=none;fillColor=#ffffff;align=left;verticalAlign=top;spacingLeft=4;spacingRight=4;overflow=hidden;rotatable=0;points=[[0,0.5],[1,0.5]];portConstraint=eastwest;" parent="372" vertex="1">
                    <mxGeometry y="86" width="210" height="26" as="geometry"/>
                </mxCell>
                <mxCell id="411" value="+ postNDL() : use Storage..." style="text;strokeColor=none;fillColor=#ffffff;align=left;verticalAlign=top;spacingLeft=4;spacingRight=4;overflow=hidden;rotatable=0;points=[[0,0.5],[1,0.5]];portConstraint=eastwest;" parent="372" vertex="1">
                    <mxGeometry y="112" width="210" height="26" as="geometry"/>
                </mxCell>
                <mxCell id="412" value="+ postImage(xml: string)" style="text;strokeColor=none;fillColor=#ffffff;align=left;verticalAlign=top;spacingLeft=4;spacingRight=4;overflow=hidden;rotatable=0;points=[[0,0.5],[1,0.5]];portConstraint=eastwest;" parent="372" vertex="1">
                    <mxGeometry y="138" width="210" height="26" as="geometry"/>
                </mxCell>
                <mxCell id="391" value="NavigationService" style="swimlane;fontStyle=1;align=center;verticalAlign=top;childLayout=stackLayout;horizontal=1;startSize=26;horizontalStack=0;resizeParent=1;resizeParentMax=0;resizeLast=0;collapsible=1;marginBottom=0;shadow=0;labelBackgroundColor=#FFFFFF;strokeWidth=1;fillColor=#ffffff;gradientColor=none;fontSize=12;" parent="1" vertex="1">
                    <mxGeometry x="190" y="-1169" width="400" height="130" as="geometry"/>
                </mxCell>
                <mxCell id="394" value="+ createNavigationComponent(source: string, target: string, source: string)" style="text;strokeColor=none;fillColor=#ffffff;align=left;verticalAlign=top;spacingLeft=4;spacingRight=4;overflow=hidden;rotatable=0;points=[[0,0.5],[1,0.5]];portConstraint=eastwest;" parent="391" vertex="1">
                    <mxGeometry y="26" width="400" height="26" as="geometry"/>
                </mxCell>
                <mxCell id="395" value="+ createRoot(source)" style="text;strokeColor=none;fillColor=#ffffff;align=left;verticalAlign=top;spacingLeft=4;spacingRight=4;overflow=hidden;rotatable=0;points=[[0,0.5],[1,0.5]];portConstraint=eastwest;" parent="391" vertex="1">
                    <mxGeometry y="52" width="400" height="26" as="geometry"/>
                </mxCell>
                <mxCell id="396" value="+ findNavigationComponentByName(source)" style="text;strokeColor=none;fillColor=#ffffff;align=left;verticalAlign=top;spacingLeft=4;spacingRight=4;overflow=hidden;rotatable=0;points=[[0,0.5],[1,0.5]];portConstraint=eastwest;" parent="391" vertex="1">
                    <mxGeometry y="78" width="400" height="26" as="geometry"/>
                </mxCell>
                <mxCell id="397" value="+ setRoot(root)" style="text;strokeColor=none;fillColor=#ffffff;align=left;verticalAlign=top;spacingLeft=4;spacingRight=4;overflow=hidden;rotatable=0;points=[[0,0.5],[1,0.5]];portConstraint=eastwest;" parent="391" vertex="1">
                    <mxGeometry y="104" width="400" height="26" as="geometry"/>
                </mxCell>
                <mxCell id="357" value="GraphEditorService" style="swimlane;fontStyle=1;align=center;verticalAlign=top;childLayout=stackLayout;horizontal=1;startSize=26;horizontalStack=0;resizeParent=1;resizeParentMax=0;resizeLast=0;collapsible=1;marginBottom=0;shadow=0;labelBackgroundColor=#FFFFFF;strokeWidth=1;fillColor=#ffffff;gradientColor=none;fontSize=12;" parent="1" vertex="1">
                    <mxGeometry x="-200" y="-1169" width="374" height="268" as="geometry"/>
                </mxCell>
                <mxCell id="358" value="- graphStorages: ArrayList&lt;GraphStorage&gt;" style="text;strokeColor=#d6b656;fillColor=#fff2cc;align=left;verticalAlign=top;spacingLeft=4;spacingRight=4;overflow=hidden;rotatable=0;points=[[0,0.5],[1,0.5]];portConstraint=eastwest;" parent="357" vertex="1">
                    <mxGeometry y="26" width="374" height="26" as="geometry"/>
                </mxCell>
                <mxCell id="415" value="- selectedGraphID: string" style="text;strokeColor=none;fillColor=#ffffff;align=left;verticalAlign=top;spacingLeft=4;spacingRight=4;overflow=hidden;rotatable=0;points=[[0,0.5],[1,0.5]];portConstraint=eastwest;" parent="357" vertex="1">
                    <mxGeometry y="52" width="374" height="26" as="geometry"/>
                </mxCell>
                <mxCell id="416" value="- selectedGraphStorage: GraphStorage" style="text;strokeColor=none;fillColor=#ffffff;align=left;verticalAlign=top;spacingLeft=4;spacingRight=4;overflow=hidden;rotatable=0;points=[[0,0.5],[1,0.5]];portConstraint=eastwest;" parent="357" vertex="1">
                    <mxGeometry y="78" width="374" height="26" as="geometry"/>
                </mxCell>
                <mxCell id="364" value="" style="line;strokeWidth=1;fillColor=#FFFFFF;align=left;verticalAlign=middle;spacingTop=-1;spacingLeft=3;spacingRight=3;rotatable=0;labelPosition=right;points=[];portConstraint=eastwest;" parent="357" vertex="1">
                    <mxGeometry y="104" width="374" height="8" as="geometry"/>
                </mxCell>
                <mxCell id="365" value="+ createGraph(element: HTMLElement)" style="text;strokeColor=none;fillColor=#ffffff;align=left;verticalAlign=top;spacingLeft=4;spacingRight=4;overflow=hidden;rotatable=0;points=[[0,0.5],[1,0.5]];portConstraint=eastwest;" parent="357" vertex="1">
                    <mxGeometry y="112" width="374" height="26" as="geometry"/>
                </mxCell>
                <mxCell id="417" value="+ bindComponent(component: UIComponent, x: number, y: number)" style="text;strokeColor=#6c8ebf;fillColor=#dae8fc;align=left;verticalAlign=top;spacingLeft=4;spacingRight=4;overflow=hidden;rotatable=0;points=[[0,0.5],[1,0.5]];portConstraint=eastwest;" parent="357" vertex="1">
                    <mxGeometry y="138" width="374" height="26" as="geometry"/>
                </mxCell>
                <mxCell id="419" value="+ bindComponent(component: UIComponent)" style="text;strokeColor=none;fillColor=#ffffff;align=left;verticalAlign=top;spacingLeft=4;spacingRight=4;overflow=hidden;rotatable=0;points=[[0,0.5],[1,0.5]];portConstraint=eastwest;" parent="357" vertex="1">
                    <mxGeometry y="164" width="374" height="26" as="geometry"/>
                </mxCell>
                <mxCell id="366" value="+ syncStorage()" style="text;strokeColor=none;fillColor=#ffffff;align=left;verticalAlign=top;spacingLeft=4;spacingRight=4;overflow=hidden;rotatable=0;points=[[0,0.5],[1,0.5]];portConstraint=eastwest;" parent="357" vertex="1">
                    <mxGeometry y="190" width="374" height="26" as="geometry"/>
                </mxCell>
                <mxCell id="418" value="+ zoomTo()" style="text;strokeColor=none;fillColor=#ffffff;align=left;verticalAlign=top;spacingLeft=4;spacingRight=4;overflow=hidden;rotatable=0;points=[[0,0.5],[1,0.5]];portConstraint=eastwest;" parent="357" vertex="1">
                    <mxGeometry y="216" width="374" height="26" as="geometry"/>
                </mxCell>
                <mxCell id="420" value="+ getMaxVertexID()" style="text;strokeColor=none;fillColor=#ffffff;align=left;verticalAlign=top;spacingLeft=4;spacingRight=4;overflow=hidden;rotatable=0;points=[[0,0.5],[1,0.5]];portConstraint=eastwest;" parent="357" vertex="1">
                    <mxGeometry y="242" width="374" height="26" as="geometry"/>
                </mxCell>
                <mxCell id="421" value="" style="endArrow=open;endFill=1;endSize=12;html=1;fontSize=12;fontColor=none;exitX=0;exitY=0.5;exitDx=0;exitDy=0;entryX=0.5;entryY=0;entryDx=0;entryDy=0;" parent="1" source="358" target="37" edge="1">
                    <mxGeometry width="160" relative="1" as="geometry">
                        <mxPoint x="100" y="-870" as="sourcePoint"/>
                        <mxPoint x="260" y="-870" as="targetPoint"/>
                        <Array as="points">
                            <mxPoint x="-240" y="-1130"/>
                            <mxPoint x="-240" y="-830"/>
                            <mxPoint x="140" y="-830"/>
                        </Array>
                    </mxGeometry>
                </mxCell>
                <mxCell id="422" value="Use" style="endArrow=open;endSize=12;dashed=1;html=1;fontSize=12;fontColor=none;noLabel=1;exitX=0;exitY=0.5;exitDx=0;exitDy=0;entryX=0.807;entryY=0;entryDx=0;entryDy=0;entryPerimeter=0;" parent="1" source="417" target="235" edge="1">
                    <mxGeometry width="160" relative="1" as="geometry">
                        <mxPoint x="-560" y="-810" as="sourcePoint"/>
                        <mxPoint x="-400" y="-810" as="targetPoint"/>
                        <Array as="points">
                            <mxPoint x="-260" y="-1018"/>
                            <mxPoint x="-260" y="-830"/>
                            <mxPoint x="-1180" y="-830"/>
                        </Array>
                    </mxGeometry>
                </mxCell>
                <mxCell id="423" value="" style="endArrow=open;endFill=1;endSize=12;html=1;fontSize=12;fontColor=none;exitX=0.5;exitY=0;exitDx=0;exitDy=0;" parent="1" source="377" target="386" edge="1">
                    <mxGeometry width="160" relative="1" as="geometry">
                        <mxPoint x="-370" y="-890" as="sourcePoint"/>
                        <mxPoint x="-530" y="-1310" as="targetPoint"/>
                        <Array as="points">
                            <mxPoint x="-955" y="-1230"/>
                            <mxPoint x="-526" y="-1230"/>
                        </Array>
                    </mxGeometry>
                </mxCell>
                <mxCell id="424" value="" style="endArrow=open;endFill=1;endSize=12;html=1;fontSize=12;fontColor=none;exitX=0.5;exitY=0;exitDx=0;exitDy=0;" parent="1" source="367" target="386" edge="1">
                    <mxGeometry width="160" relative="1" as="geometry">
                        <mxPoint x="-370" y="-1190" as="sourcePoint"/>
                        <mxPoint x="-530" y="-1310" as="targetPoint"/>
                        <Array as="points">
                            <mxPoint x="-615" y="-1230"/>
                            <mxPoint x="-526" y="-1230"/>
                        </Array>
                    </mxGeometry>
                </mxCell>
                <mxCell id="425" value="" style="endArrow=open;endFill=1;endSize=12;html=1;fontSize=12;fontColor=none;exitX=0.5;exitY=0;exitDx=0;exitDy=0;entryX=0.5;entryY=1;entryDx=0;entryDy=0;" parent="1" source="372" target="382" edge="1">
                    <mxGeometry width="160" relative="1" as="geometry">
                        <mxPoint x="-440" y="-1210" as="sourcePoint"/>
                        <mxPoint x="-530" y="-1310" as="targetPoint"/>
                        <Array as="points">
                            <mxPoint x="-375" y="-1230"/>
                            <mxPoint x="-525" y="-1230"/>
                        </Array>
                    </mxGeometry>
                </mxCell>
                <mxCell id="382" value="HttpClientService" style="swimlane;fontStyle=1;align=center;verticalAlign=top;childLayout=stackLayout;horizontal=1;startSize=26;horizontalStack=0;resizeParent=1;resizeParentMax=0;resizeLast=0;collapsible=1;marginBottom=0;shadow=0;labelBackgroundColor=#FFFFFF;strokeWidth=1;fillColor=#ffffff;gradientColor=none;fontSize=12;" parent="1" vertex="1">
                    <mxGeometry x="-670" y="-1480" width="290" height="164" as="geometry"/>
                </mxCell>
                <mxCell id="383" value="- urlPrefix: string" style="text;strokeColor=none;fillColor=#ffffff;align=left;verticalAlign=top;spacingLeft=4;spacingRight=4;overflow=hidden;rotatable=0;points=[[0,0.5],[1,0.5]];portConstraint=eastwest;" parent="382" vertex="1">
                    <mxGeometry y="26" width="290" height="26" as="geometry"/>
                </mxCell>
                <mxCell id="426" value="- port: string" style="text;strokeColor=none;fillColor=#ffffff;align=left;verticalAlign=top;spacingLeft=4;spacingRight=4;overflow=hidden;rotatable=0;points=[[0,0.5],[1,0.5]];portConstraint=eastwest;" parent="382" vertex="1">
                    <mxGeometry y="52" width="290" height="26" as="geometry"/>
                </mxCell>
                <mxCell id="384" value="" style="line;strokeWidth=1;fillColor=#FFFFFF;align=left;verticalAlign=middle;spacingTop=-1;spacingLeft=3;spacingRight=3;rotatable=0;labelPosition=right;points=[];portConstraint=eastwest;" parent="382" vertex="1">
                    <mxGeometry y="78" width="290" height="8" as="geometry"/>
                </mxCell>
                <mxCell id="385" value="+ httpPost(endPointUrl: string, requestBody: Object)" style="text;strokeColor=none;fillColor=#ffffff;align=left;verticalAlign=top;spacingLeft=4;spacingRight=4;overflow=hidden;rotatable=0;points=[[0,0.5],[1,0.5]];portConstraint=eastwest;" parent="382" vertex="1">
                    <mxGeometry y="86" width="290" height="26" as="geometry"/>
                </mxCell>
                <mxCell id="427" value="+ httpPost(endPointUrl: string, requestBody: Object)" style="text;strokeColor=none;fillColor=#ffffff;align=left;verticalAlign=top;spacingLeft=4;spacingRight=4;overflow=hidden;rotatable=0;points=[[0,0.5],[1,0.5]];portConstraint=eastwest;" parent="382" vertex="1">
                    <mxGeometry y="112" width="290" height="26" as="geometry"/>
                </mxCell>
                <mxCell id="386" value="+ field: type" style="text;strokeColor=none;fillColor=#ffffff;align=left;verticalAlign=top;spacingLeft=4;spacingRight=4;overflow=hidden;rotatable=0;points=[[0,0.5],[1,0.5]];portConstraint=eastwest;" parent="382" vertex="1">
                    <mxGeometry y="138" width="290" height="26" as="geometry"/>
                </mxCell>
                <mxCell id="438" value="" style="endArrow=open;endFill=1;endSize=12;html=1;fontSize=12;fontColor=none;exitX=0;exitY=0.5;exitDx=0;exitDy=0;entryX=0.5;entryY=1;entryDx=0;entryDy=0;" parent="1" source="436" target="391" edge="1">
                    <mxGeometry width="160" relative="1" as="geometry">
                        <mxPoint x="380" y="-730" as="sourcePoint"/>
                        <mxPoint x="540" y="-730" as="targetPoint"/>
                        <Array as="points">
                            <mxPoint x="410" y="-318"/>
                            <mxPoint x="410" y="-910"/>
                            <mxPoint x="390" y="-910"/>
                        </Array>
                    </mxGeometry>
                </mxCell>
            </root>
        </mxGraphModel>
    </diagram>
</mxfile>